<svg xmlns="http://www.w3.org/2000/svg" width="27" height="27" viewBox="0 0 27 27" fill="none"><path d="M25 24.5L17.6934 17.7188M19.8956 12.0572C19.8956 13.6075 19.4359 15.123 18.5746 16.412C17.7133 17.701 16.4891 18.7057 15.0568 19.299C13.6245 19.8922 12.0485 20.0475 10.528 19.745C9.00748 19.4426 7.6108 18.696 6.51458 17.5998C5.41835 16.5036 4.67181 15.1069 4.36937 13.5864C4.06692 12.0659 4.22215 10.4898 4.81542 9.05755C5.40869 7.62526 6.41336 6.40106 7.70239 5.53976C8.99141 4.67847 10.5069 4.21875 12.0572 4.21875C13.0865 4.21875 14.1058 4.4215 15.0568 4.81542C16.0078 5.20933 16.8719 5.78671 17.5998 6.51458C18.3277 7.24244 18.905 8.10654 19.299 9.05755C19.6929 10.0086 19.8956 11.0278 19.8956 12.0572Z" stroke="#AE1D74" stroke-width="2" stroke-miterlimit="10"></path></svg>