<svg xmlns="http://www.w3.org/2000/svg" width="10" height="14" viewBox="0 0 10 14" fill="none"><path d="M7.21829 1.97816C6.54972 1.50569 5.71907 1.22656 4.81617 1.22656C3.91318 1.22656 3.07962 1.50569 2.41406 1.97816" stroke="#AE1D74" stroke-miterlimit="10" stroke-linecap="round" stroke-linejoin="round"></path><path d="M4.8163 9.25195C5.71929 9.25195 6.54994 8.96454 7.21841 8.47803V12.9998L4.8163 11.095L2.41406 12.9998V8.47803C3.07974 8.96454 3.91328 9.25195 4.8163 9.25195Z" stroke="#AE1D74" stroke-miterlimit="10" stroke-linecap="round" stroke-linejoin="round"></path><path d="M2.41304 8.47803C1.55532 7.73172 1 6.55421 1 5.22803C1 3.90184 1.55532 2.72437 2.41304 1.97803" stroke="#AE1D74" stroke-miterlimit="10" stroke-linecap="round" stroke-linejoin="round"></path><path d="M7.21875 1.97803C8.24925 2.72138 8.9144 3.90184 8.9144 5.22803C8.9144 6.55421 8.24925 7.73468 7.21875 8.47803" stroke="#AE1D74" stroke-miterlimit="10" stroke-linecap="round" stroke-linejoin="round"></path><path d="M6.00476 6.78235L5.80469 5.45888L6.65251 4.52148" stroke="#AE1D74" stroke-miterlimit="10" stroke-linecap="round" stroke-linejoin="round"></path><path d="M3.82422 6.7825L4.95465 6.21729L6.08509 6.7825" stroke="#AE1D74" stroke-miterlimit="10" stroke-linecap="round" stroke-linejoin="round"></path><path d="M2.97656 4.52148L3.82439 5.45888L3.62431 6.78235" stroke="#AE1D74" stroke-miterlimit="10" stroke-linecap="round" stroke-linejoin="round"></path><path d="M4.95482 3.39111L4.34348 4.36537L2.97656 4.52155" stroke="#AE1D74" stroke-miterlimit="10" stroke-linecap="round" stroke-linejoin="round"></path><path d="M6.65268 4.52155L5.48104 4.36537L4.95703 3.39111" stroke="#AE1D74" stroke-miterlimit="10" stroke-linecap="round" stroke-linejoin="round"></path></svg>