<svg xmlns="http://www.w3.org/2000/svg" width="137" height="137" viewBox="0 0 137 137" fill="none">
<circle cx="68.5" cy="68.5" r="68.5" fill="#FF70BB"></circle>
<path d="M69.4649 1.92944C106.746 1.92944 137 32.1832 137 69.4647C137 106.746 106.746 137 69.4649 137C32.1835 137 1.92969 106.746 1.92969 69.4647C1.92969 32.1832 32.1835 1.92944 69.4649 1.92944ZM69.4649 4.99895C33.8445 4.99895 4.99947 33.8439 4.99947 69.4644C4.99947 81.7468 8.39761 93.2253 14.3527 102.991C22.753 97.7585 28.0401 97.5507 31.572 98.6739C37.421 100.6 39.7058 104.965 41.6447 108.267C42.6137 109.918 43.5515 111.313 44.7142 112.248C45.8673 113.176 47.2977 113.782 49.7024 113.783C52.4036 113.783 54.0973 112.751 55.41 111.385C56.7194 109.99 57.6744 108.021 58.6242 105.917C59.5738 103.813 60.5203 101.55 62.1733 99.7778C63.8264 98.0059 66.306 96.8796 69.5597 97.0915C72.5692 97.5091 76.1496 99.1772 77.9537 102.128C79.4879 104.521 80.0104 107.242 80.4954 109.706C80.9815 112.169 81.4825 114.407 82.4622 115.893C83.4354 117.37 84.7802 118.351 87.93 118.579C90.6291 118.472 91.944 117.515 93.0146 115.99C94.1002 114.441 94.809 112.16 95.5563 109.706C96.3036 107.253 97.0766 104.655 98.8174 102.511C101.162 99.632 104.401 98.8535 107.26 98.7702C113.771 98.8548 119.26 102.928 120.738 108.555C129.017 97.7122 133.93 84.1674 133.93 69.4645C133.93 33.844 105.087 4.99906 69.4642 4.99906L69.4649 4.99895ZM64.8599 18.8124C66.9788 18.8124 68.6972 20.5308 68.6972 22.6497C68.6972 24.7685 66.9788 26.4869 64.8599 26.4869C62.7411 26.4869 61.0227 24.7685 61.0227 22.6497C61.0227 20.5308 62.7411 18.8124 64.8599 18.8124ZM100.93 30.3241C103.049 30.3241 104.767 32.0425 104.767 34.1613C104.767 36.2802 103.049 37.9986 100.93 37.9986C98.8111 37.9986 97.0927 36.2802 97.0927 34.1613C97.0927 32.0425 98.8111 30.3241 100.93 30.3241ZM33.3947 31.8594C35.5135 31.8594 37.2319 33.5778 37.2319 35.6967C37.2319 37.8155 35.5135 39.5339 33.3947 39.5339C31.2758 39.5339 29.5575 37.8155 29.5575 35.6967C29.5575 33.5778 31.2758 31.8594 33.3947 31.8594ZM80.9763 34.9289C83.0951 34.9289 84.8135 36.6473 84.8135 38.7662C84.8135 40.885 83.0951 42.6034 80.9763 42.6034C78.8575 42.6034 77.1391 40.885 77.1391 38.7662C77.1391 36.6473 78.8575 34.9289 80.9763 34.9289ZM50.2785 39.5339C52.3973 39.5339 54.1157 41.2523 54.1157 43.3711C54.1157 45.49 52.3973 47.2083 50.2785 47.2083C48.1596 47.2083 46.4413 45.49 46.4413 43.3711C46.4413 41.2523 48.1596 39.5339 50.2785 39.5339ZM111.194 48.7438C113.313 48.7438 115.032 50.4622 115.032 52.581C115.032 54.6998 113.313 56.4182 111.194 56.4182C109.076 56.4182 107.357 54.6998 107.357 52.581C107.357 50.4622 109.076 48.7438 111.194 48.7438ZM69.4646 49.5115C80.4668 49.5115 89.4185 58.4632 89.4185 69.4653C89.4185 80.4675 80.4668 89.4192 69.4646 89.4192C58.4625 89.4192 49.5108 80.4675 49.5108 69.4653C49.5108 58.4632 58.4625 49.5115 69.4646 49.5115ZM69.4646 52.581C60.1221 52.581 52.5803 60.1217 52.5803 69.4653C52.5803 78.8079 60.1221 86.3497 69.4646 86.3497C78.8072 86.3497 86.349 78.809 86.349 69.4653C86.349 60.1228 78.8083 52.581 69.4646 52.581ZM17.2783 54.1163C19.3972 54.1163 21.1156 55.8347 21.1156 57.9535C21.1156 60.0723 19.3972 61.7907 17.2783 61.7907C15.1595 61.7907 13.4411 60.0723 13.4411 57.9535C13.4411 55.8347 15.1595 54.1163 17.2783 54.1163ZM100.162 57.1858C102.281 57.1858 104 58.9042 104 61.023C104 63.1419 102.281 64.8603 100.162 64.8603C98.0436 64.8603 96.3252 63.1419 96.3252 61.023C96.3252 58.9042 98.0436 57.1858 100.162 57.1858ZM35.697 61.7907C37.8159 61.7907 39.5342 63.5091 39.5342 65.628C39.5342 67.7468 37.8159 69.4652 35.697 69.4652C33.5782 69.4652 31.8598 67.7468 31.8598 65.628C31.8598 63.5091 33.5782 61.7907 35.697 61.7907ZM117.814 70.2329C119.933 70.2329 121.651 71.9513 121.651 74.0701C121.651 76.189 119.933 77.9074 117.814 77.9074C115.695 77.9074 113.976 76.189 113.976 74.0701C113.976 71.9513 115.695 70.2329 117.814 70.2329ZM27.2551 79.4428C29.374 79.4428 31.0923 81.1612 31.0923 83.2801C31.0923 85.3989 29.374 87.1173 27.2551 87.1173C25.1363 87.1173 23.4179 85.3989 23.4179 83.2801C23.4179 81.1612 25.1363 79.4428 27.2551 79.4428ZM100.162 83.2801C102.281 83.2801 104 84.9984 104 87.1173C104 89.2361 102.281 90.9545 100.162 90.9545C98.0436 90.9545 96.3252 89.2361 96.3252 87.1173C96.3252 84.9984 98.0436 83.2801 100.162 83.2801ZM69.3221 100.164C66.8468 100.016 65.5663 100.672 64.4302 101.891C63.2835 103.12 62.3638 105.05 61.4089 107.168C60.4528 109.285 59.4432 111.609 57.6682 113.5C55.3256 116.079 52.3846 116.744 49.7539 116.857C46.7647 116.872 44.4851 116.007 42.7989 114.65C41.1127 113.294 40.012 111.561 39.0099 109.854C37.0057 106.441 35.4243 103.187 30.616 101.603C27.9318 100.75 23.9159 100.664 16.0348 105.584C27.6194 122.699 47.2287 133.933 69.4682 133.933C88.8695 133.933 106.243 125.368 118.056 111.821C118.18 106.288 113.525 101.948 107.264 101.844C104.846 101.918 102.513 102.597 101.22 104.434C99.9798 105.96 99.2217 108.204 98.4851 110.621C97.7485 113.039 97.029 115.605 95.5118 117.768C93.4594 120.574 90.7315 121.652 87.7891 121.653C83.9272 121.388 81.3319 119.787 79.8749 117.576C78.4177 115.366 77.9594 112.784 77.4766 110.333C76.9937 107.883 76.4841 105.554 75.3663 103.81C73.3235 101.11 71.4403 100.6 69.3224 100.164L69.3221 100.164Z" fill="white"></path>
</svg>