<svg xmlns="http://www.w3.org/2000/svg" width="166" height="132" viewBox="0 0 166 132" fill="none">
<path d="M133.613 126.934C133.005 126.934 132.388 126.934 131.779 126.934C131.681 126.934 131.583 126.925 131.493 126.943C131.198 126.979 131.109 127.122 131.261 127.365C131.61 127.939 131.753 128.585 131.985 129.205C132.128 129.582 132.209 129.977 132.182 130.39C132.128 131.269 131.431 131.7 130.617 131.359C130.277 131.215 130.018 130.964 129.821 130.677C129.571 130.318 129.338 129.95 129.204 129.528C129.106 129.223 128.971 128.927 128.802 128.648C128.748 128.568 128.694 128.487 128.667 128.388C128.471 127.634 128.068 126.97 127.746 126.261C127.424 125.543 127.12 124.816 126.745 124.115C126.378 123.433 126.128 122.697 125.788 122.006C125.233 120.857 124.786 119.663 124.142 118.559C123.838 118.03 123.633 117.437 123.418 116.872C123.105 116.073 122.712 115.319 122.336 114.547C121.603 113.057 120.923 111.54 120.208 110.041C119.796 109.171 119.394 108.291 119.081 107.375C119.045 107.286 119.018 107.187 118.974 107.106C118.491 106.253 118.124 105.338 117.704 104.449C117.453 103.929 117.203 103.399 116.952 102.878C116.765 102.484 116.487 102.16 116.094 101.927C115.191 101.362 114.332 100.724 113.626 99.9254C112.866 99.0547 111.998 98.2648 111.471 97.2147C111.113 96.5145 110.684 95.8503 110.532 95.0515C110.478 94.7553 110.362 94.468 110.263 94.1718C109.754 92.5651 109.485 90.9136 109.271 89.2441C109.199 88.6427 109.047 88.0772 108.859 87.5117C108.332 85.905 107.5 84.4509 106.651 83.0058C106.033 81.9646 105.318 80.9862 104.781 79.9002C104.719 79.7655 104.638 79.6488 104.585 79.5142C104.191 78.5448 103.494 77.9165 102.537 77.5126C101.652 77.1445 100.748 76.7855 99.9614 76.2111C98.1818 74.9095 96.8672 73.267 96.1339 71.1756C95.9282 70.6011 95.7136 70.0267 95.4543 69.4702C94.873 68.2046 93.7283 67.6121 92.2796 67.5942C90.9024 67.5762 89.6773 68.1327 88.4521 68.6534C87.2717 69.156 86.449 70.0446 85.7067 71.0768C84.9555 72.118 84.5442 73.2939 84.0345 74.4428C83.6946 75.2058 83.6052 76.0226 83.4085 76.8214C83.3816 76.9112 83.3727 77.0099 83.3637 77.1086C83.2475 79.4155 83.2475 81.7223 83.632 84.0111C83.7125 84.4689 83.7215 84.9446 83.8109 85.4024C83.9808 86.291 84.1954 87.1706 84.3653 88.0503C84.4995 88.7683 84.6694 89.4685 84.8304 90.1776C85.1523 91.5598 85.4206 92.9601 85.7872 94.3244C86.0555 95.3387 86.3506 96.344 86.6368 97.3493C86.753 97.7532 86.8425 98.1661 86.9677 98.5611C87.5042 100.401 88.1123 102.223 88.7204 104.045C88.9798 104.826 89.3554 105.571 89.5342 106.37C89.7667 107.483 90.2228 108.524 90.5716 109.592C90.8041 110.293 91.1349 110.966 91.3853 111.666C91.6894 112.501 91.9934 113.335 92.2975 114.17C92.378 114.395 92.4674 114.628 92.5568 114.852C92.5658 114.879 92.5926 114.906 92.6015 114.942C92.7893 115.687 92.9861 116.432 93.1649 117.186C93.2007 117.321 93.1828 117.482 93.156 117.617C93.1113 117.877 92.9682 118.075 92.691 118.111C92.3333 118.164 91.9845 118.164 91.6805 117.922C91.3585 117.68 91.0545 117.41 90.8309 117.069C90.348 116.351 89.8204 115.651 89.4984 114.834C89.2302 114.161 89.0066 113.47 88.6936 112.815C88.0765 111.495 87.6741 110.095 87.1107 108.758C86.7799 107.968 86.5563 107.142 86.2165 106.352C85.9035 105.607 85.7336 104.808 85.5011 104.045C85.2328 103.148 84.8393 102.295 84.6157 101.388C84.4458 100.697 84.1686 100.042 84.0076 99.3509C83.8377 98.6149 83.5337 97.9058 83.3637 97.1698C83.1134 96.0658 82.8451 94.9707 82.5768 93.8756C82.2101 92.4305 82.0223 90.9585 81.6646 89.5223C81.4679 88.7414 81.3606 87.9426 81.2712 87.1347C81.2086 86.5872 81.1191 86.0486 81.0565 85.5011C80.8598 83.9662 80.7167 82.4224 80.6631 80.8696C80.6452 80.2771 80.5647 79.6847 80.6094 79.0833C80.6452 78.5717 80.3053 78.3294 79.8314 78.5358C79.2412 78.7871 78.6241 78.85 77.9892 78.8769C77.3006 78.9038 76.6031 78.9308 75.9145 78.8859C74.9487 78.8141 74.0097 78.6705 73.1154 78.2576C72.4626 77.9614 71.7919 77.6652 71.1391 77.3689C70.379 77.0279 69.6904 76.5432 69.0823 75.9508C68.1254 75.0173 67.4458 73.8773 66.8019 72.7284C65.6036 70.6011 64.3158 68.5456 62.733 66.6786C61.6062 65.3502 60.3989 64.0936 59.2274 62.81C58.5478 62.065 58.0202 61.2213 57.6267 60.2878C57.5462 60.0993 57.5015 59.8839 57.4747 59.6774C57.3048 58.6721 57.1527 57.6668 57.3674 56.6436C57.43 56.3294 57.4568 56.0063 57.4747 55.6832C57.5015 55.1805 57.5999 54.6958 57.8145 54.2291C58.0291 53.7444 58.0738 53.1968 58.3153 52.7121C58.3958 52.5416 58.3153 52.398 58.1543 52.3082C58.0202 52.2185 57.8771 52.1467 57.7072 52.1287C57.4926 52.1018 57.3048 52.012 57.1259 51.9043C56.6698 51.644 56.5089 51.2491 56.6698 50.7554C56.7771 50.4233 57.0633 50.2976 57.3763 50.2527C57.6446 50.2168 57.9218 50.2258 58.1901 50.2797C59.0218 50.4592 59.8534 50.3425 60.6851 50.3066C61.1322 50.2886 61.5794 50.2079 62.0265 50.172C63.0996 50.0912 64.0833 49.7232 64.915 49.0589C65.5857 48.5114 65.8897 47.7126 65.9702 46.8509C65.997 46.5457 65.9613 46.2315 65.997 45.9353C66.0686 45.2352 66.5604 44.8133 67.1954 44.8762C67.562 44.9121 67.8214 45.1634 67.8571 45.5314C67.8661 45.6391 67.8661 45.7558 67.8571 45.8725C67.7945 47.3894 67.6962 48.8974 67.571 50.4143C67.4994 51.3478 67.5441 52.2903 67.5441 53.2238C67.5441 53.5918 67.571 53.9688 67.5889 54.3368C67.6246 54.9202 67.8303 55.1715 68.3847 55.3511C68.6351 55.4318 68.8855 55.4588 69.1449 55.4498C69.5652 55.4318 69.9765 55.4049 70.3969 55.378C70.8619 55.3421 71.3269 55.3062 71.7919 55.3511C72.4447 55.4139 72.6951 55.746 72.6057 56.4012C72.5431 56.8231 72.3285 57.1552 72.0155 57.4335C71.7204 57.7027 71.3895 57.9361 71.0854 58.2054C70.2627 58.9145 69.2522 58.9863 68.2953 58.7799C67.3027 58.5644 66.4263 57.9989 65.7645 57.1821C65.5499 56.9129 65.4158 56.5987 65.3711 56.2576C65.2816 55.5126 65.2727 54.7766 65.4337 54.0406C65.532 53.5918 65.5767 53.152 65.5767 52.6942C65.5767 52.4698 65.6125 52.2454 65.6304 52.021C65.6751 51.5901 65.3889 51.3837 64.9955 51.5632C64.7004 51.6979 64.4142 51.8325 64.1101 51.9402C63.4484 52.1646 62.7598 52.2005 62.0712 52.3172C61.8029 52.3621 61.5257 52.38 61.2574 52.4159C60.703 52.4877 60.3274 52.8199 60.1843 53.3405C59.9607 54.1483 59.6925 54.9471 59.603 55.7819C59.5941 55.8896 59.5851 56.0153 59.5494 56.114C59.2811 56.7872 59.2721 57.4694 59.4152 58.1605C59.4331 58.2413 59.4421 58.3221 59.451 58.4029C59.5315 59.5608 60.0591 60.5122 60.7656 61.4098C61.3826 62.1997 62.098 62.8998 62.7598 63.6448C63.5289 64.5065 64.3248 65.3592 65.0223 66.2927C65.6572 67.1274 66.3458 67.9173 66.9271 68.788C67.4368 69.5509 67.9734 70.2959 68.4295 71.0948C68.7156 71.5974 69.0644 72.0642 69.4042 72.5309C69.7351 72.9887 70.0749 73.4285 70.4237 73.8773C70.4952 73.9671 70.5668 74.0568 70.6562 74.1286C71.2643 74.5774 71.783 75.1339 72.4805 75.4661C72.8829 75.6545 73.2675 75.8879 73.6967 76.0495C74.9308 76.4983 76.1559 76.5432 77.4347 76.2111C78.2754 75.9867 79.0265 75.6276 79.7688 75.2147C80.5557 74.7749 81.0476 74.1286 81.289 73.249C81.5394 72.3424 81.9955 71.5167 82.4069 70.6819C82.8451 69.8112 83.4263 69.0393 84.0613 68.3033C85.2685 66.921 86.6994 65.8529 88.4611 65.2784C88.8277 65.1617 89.2123 65.0989 89.5968 65.054C90.8041 64.9014 91.6268 64.1744 91.9487 63.0075C92.5211 60.9251 92.9324 58.7978 93.3349 56.6795C93.5942 55.2882 93.8893 53.897 94.1933 52.5057C94.3096 51.9851 94.1486 51.5722 93.8535 51.1952C92.6463 49.6693 91.6805 48.0088 90.9293 46.2046C90.348 44.8133 89.883 43.3951 89.5163 41.9411C89.3464 41.2499 89.257 40.5498 89.105 39.8497C88.8635 38.7456 88.5147 37.6775 88.014 36.6632C87.844 36.3132 87.6741 35.9721 87.5132 35.613C87.3522 35.245 87.0929 34.9937 86.7173 34.8142C86.127 34.5449 85.5547 34.4192 84.9019 34.5629C84.0702 34.7514 83.2386 34.6526 82.4158 34.4462C82.0223 34.3474 81.7004 34.1141 81.3695 33.8627C80.8419 33.4588 80.4663 32.9472 80.1802 32.3638C79.6704 31.3315 79.4916 30.2544 79.8314 29.1324C79.9745 28.6477 79.8224 28.2887 79.3306 28.2348C78.6688 28.163 78.0697 27.8579 77.4169 27.7591C76.147 27.5617 74.904 27.2295 73.6341 27.0051C72.4894 26.8077 71.3358 26.7269 70.2001 26.5205C69.5652 26.4038 68.9213 26.4127 68.2774 26.4217C67.1685 26.4307 66.3726 26.9872 65.8271 27.8938C65.1833 28.9529 64.3248 29.7518 63.2606 30.3891C62.1606 31.0443 60.9981 31.547 59.8713 32.1214C59.5136 32.3009 59.138 32.4356 58.7714 32.6151C57.6267 33.1985 56.8308 34.141 56.1154 35.1553C55.7398 35.6848 55.6951 36.3401 55.6504 36.9684C55.552 38.1802 55.7398 39.3829 55.9723 40.5767C56.0886 41.1871 56.5178 41.4653 57.1348 41.3845C58.2437 41.2499 59.3526 41.3756 60.4615 41.4564C61.2217 41.5102 61.9192 41.8333 62.6525 42.0218C63.0728 42.1295 63.2338 42.4976 63.1622 43.0361C63.1086 43.4041 62.8939 43.6016 62.4468 43.6016C61.8387 43.5926 61.2306 43.5477 60.6136 43.5029C59.6477 43.44 58.6819 43.5388 57.7161 43.5118C57.6535 43.5118 57.582 43.5208 57.5283 43.5298C57.1527 43.6285 57.0186 43.8619 57.1796 44.212C57.5104 44.93 57.8145 45.6661 58.2348 46.3303C58.5031 46.7521 58.5657 47.2009 58.5388 47.6767C58.512 48.0536 58.3242 48.2152 57.9486 48.2421C57.6803 48.2601 57.4389 48.1883 57.2332 48.0177C56.9292 47.7754 56.6698 47.4882 56.482 47.1471C56.0438 46.3392 55.4804 45.6032 54.926 44.8762C54.6845 44.562 54.5951 44.553 54.309 44.8044C53.9244 45.1455 53.4952 45.4417 53.057 45.7109C52.6724 45.9443 52.2521 45.9264 51.8408 45.8366C51.5278 45.7738 51.3489 45.5314 51.2953 45.2173C51.2327 44.8403 51.2863 44.4812 51.5278 44.1581C52.0643 43.449 52.5383 42.695 53.3521 42.2642C53.4505 42.2103 53.5309 42.1295 53.6114 42.0488C53.987 41.7346 54.0049 41.6448 53.8082 41.1781C53.6472 40.8011 53.5846 40.4062 53.5667 40.0023C53.5041 38.9252 53.4505 37.8391 53.3789 36.762C53.3253 35.9451 52.9228 35.3617 52.2164 34.9309C51.6798 34.5988 51.1164 34.3474 50.5083 34.1589C49.2206 33.773 48.0848 33.1177 47.0922 32.2291C46.7613 31.9329 46.5109 31.547 46.2069 31.2059C45.2321 30.1018 44.5883 28.8093 44.0517 27.4539C43.9086 27.0949 43.8371 26.7089 43.7387 26.332C43.5777 25.7126 43.2379 25.183 42.9965 24.5996C42.5583 23.5494 42.3258 22.4454 42.2632 21.3055C42.1737 19.5731 42.3079 17.8497 42.6656 16.1533C42.9517 14.78 43.0859 13.3797 43.4168 12.0064C43.6046 11.2255 43.8907 10.5703 44.6151 10.1753C44.7671 10.0945 44.8923 9.95093 45.0354 9.8522C45.6614 9.42136 46.4394 9.48419 46.976 10.0317C47.4499 10.5254 48.0133 10.7767 48.6929 10.8036C48.7555 10.8036 48.8181 10.8126 48.8897 10.8126C50.1685 10.9742 51.1611 10.4805 51.8855 9.44828C52.2521 8.92768 52.735 8.52376 53.1464 8.05702C53.7903 7.33895 54.4968 6.6837 55.1496 5.96563C55.5341 5.54376 56.026 5.25653 56.4015 4.83467C56.643 4.57437 56.9202 4.35894 57.1706 4.09864C57.5104 3.74858 57.8681 3.4434 58.3332 3.25491C58.673 3.12027 58.9592 2.85997 59.2274 2.60864C59.6299 2.24063 60.0591 1.89057 60.4973 1.55846C61.4989 0.795511 62.6525 0.454427 63.8776 0.221053C65.7467 -0.129007 67.6336 0.0415353 69.5115 0.0415353C71.622 0.0415353 73.7235 0.221053 75.834 0.239005C77.7835 0.256957 79.7151 0.490331 81.6468 0.741656C83.2743 0.957078 84.9108 1.10967 86.5473 1.1725C87.2091 1.19943 87.8619 1.31611 88.5147 1.40587C90.035 1.60334 91.5195 1.92648 93.0129 2.24961C93.7373 2.4022 94.4616 2.53684 95.186 2.68045C95.6421 2.77021 96.0892 2.91382 96.5184 3.09334C97.4127 3.46135 98.307 3.81142 99.2013 4.17943C99.6037 4.34997 99.8988 4.68208 100.274 4.90647C101.884 5.89382 103.306 7.14148 104.781 8.30834C105.864 9.15208 106.981 9.93298 108.09 10.7318C109.011 11.3961 109.959 12.0423 110.773 12.8591C111.14 13.2271 111.587 13.4874 111.962 13.8465C112.955 14.7979 113.885 15.7942 114.538 17.0239C115.092 18.0652 115.87 18.9268 116.711 19.7257C117.82 20.7848 118.991 21.7632 120.154 22.7506C121.647 24.0252 122.712 25.569 123.275 27.4809C123.704 28.926 123.946 30.398 124.053 31.906C124.116 32.7587 124.33 33.5935 124.518 34.4282C124.706 35.2271 125.135 35.9092 125.681 36.5286C126.503 37.4621 127.29 38.4135 128.086 39.3739C128.426 39.7868 128.739 40.2087 129.052 40.6485C129.678 41.5282 130.402 42.336 131.064 43.1887C131.529 43.7991 131.896 44.4543 132.119 45.1903C132.343 45.9533 132.683 46.6624 133.139 47.3176C133.532 47.8921 134.078 48.2332 134.677 48.5204C134.927 48.6371 135.187 48.7179 135.437 48.8345C135.929 49.0769 136.385 49.3552 136.814 49.7142C137.726 50.5041 138.719 51.1952 139.622 52.003C140.418 52.7121 141.241 53.3764 142.037 54.0855C142.52 54.5163 143.011 54.9292 143.503 55.3421C144.094 55.8268 144.8 56.114 145.435 56.5269C145.864 56.8052 146.302 57.0744 146.767 57.2899C147.483 57.6309 148.216 57.8464 148.994 57.8912C150.148 57.972 151.301 58.0618 152.464 58.0887C153.635 58.1156 154.297 57.4514 154.869 56.5897C155.397 55.7819 155.558 54.8664 155.567 53.9149C155.576 53.2058 155.549 52.4877 155.737 51.7966C155.952 50.9708 156.676 50.4592 157.508 50.54C157.731 50.5579 157.964 50.6028 158.134 50.7733C159.073 51.7427 160.172 52.5685 160.977 53.6636C161.505 54.3727 161.979 55.1267 162.533 55.8178C162.694 56.0153 162.784 56.2756 162.82 56.5269C163.052 58.0438 163.49 59.5159 163.955 60.979C164.429 62.451 164.867 63.941 165.163 65.4579C165.413 66.7953 165.449 68.1507 165.395 69.515C165.35 70.6819 165.154 71.8308 164.876 72.9618C164.671 73.7876 164.224 74.5056 163.767 75.2058C163.687 75.3314 163.598 75.4481 163.517 75.5648C163.383 75.7443 163.347 75.9238 163.41 76.1482C163.553 76.6778 163.347 77.0279 162.811 77.1535C162.569 77.2074 162.363 77.2792 162.22 77.5215C161.344 79.0833 160.539 80.69 160.074 82.4314C159.752 83.6341 159.654 84.8818 159.6 86.1205C159.555 87.0899 159.52 88.0592 159.314 89.0107C159.028 90.3481 158.464 91.5778 157.865 92.7985C157.552 93.4448 157.15 94.0282 156.756 94.6117C156.461 95.0515 156.086 95.4374 155.728 95.8234C155.236 96.353 154.762 96.9095 154.27 97.4391C153.215 98.579 151.972 99.4497 150.55 100.06C150.049 100.275 149.566 100.545 149.093 100.814C148.189 101.317 147.259 101.694 146.195 101.783C145.158 101.873 144.102 101.837 143.092 102.16C142.985 102.196 142.868 102.214 142.77 102.259C142.591 102.34 142.484 102.484 142.529 102.681C142.654 103.22 142.636 103.776 142.743 104.315C142.931 105.293 143.298 106.2 143.798 107.052C144.568 108.363 145.408 109.628 146.428 110.75C147.34 111.747 148.288 112.716 149.379 113.524C149.978 113.964 150.559 114.412 151.158 114.852C151.444 115.068 151.713 115.283 152.026 115.454C152.58 115.759 152.705 116.324 152.348 116.854C152.294 116.935 152.231 117.016 152.16 117.078C151.453 117.725 150.872 118.47 150.219 119.17C149.924 119.484 149.611 119.789 149.271 120.067C148.127 121.001 147.009 121.979 145.775 122.814C145.041 123.308 144.281 123.765 143.53 124.232C142.94 124.6 142.332 124.914 141.715 125.228C141.661 125.255 141.607 125.3 141.545 125.318C140.105 125.83 138.674 126.395 137.172 126.683C135.965 126.889 134.784 126.961 133.613 126.934ZM88.8814 31.5918C89.0602 31.2597 89.096 30.9366 89.1228 30.6224C89.1765 30.1288 89.2212 29.6441 88.7741 29.2401C88.4969 28.9888 88.5684 28.6657 88.8367 28.3874C89.0692 28.1541 89.4358 28.1092 89.7757 28.2977C90.2407 28.558 90.5358 28.935 90.5716 29.4915C90.6252 30.3711 90.5805 31.2418 90.2943 32.0765C90.0797 32.6959 89.9009 33.3511 89.3196 33.764C89.2391 33.8179 89.1854 33.9166 89.1765 34.0064C89.1586 34.4552 89.0781 34.9219 89.2927 35.3438C89.5789 35.9003 89.8293 36.4837 90.2139 36.9864C90.7951 37.7673 91.2959 38.593 91.7252 39.4547C91.8772 39.7599 92.0024 40.0741 92.4316 40.0741C92.53 40.0741 92.6642 40.1638 92.7089 40.2446C92.7893 40.4062 92.9324 40.4062 93.0666 40.4511C93.3974 40.5498 93.7283 40.6665 94.086 40.6485C94.1933 40.6395 94.3185 40.6395 94.408 40.7114C94.8641 41.0704 95.4006 41.0076 95.9282 41.0165C96.1518 41.0165 96.3575 40.9806 96.5095 40.837C96.6973 40.6665 96.894 40.6485 97.1265 40.6395C97.4753 40.6306 97.8956 40.6126 98.1192 40.3703C98.468 39.9753 99.0313 40.0471 99.3712 39.6881C100.256 39.5176 100.972 39.0329 101.589 38.4045C102.206 37.7762 102.501 36.9684 102.734 36.1426C102.787 35.9541 102.823 35.7387 102.868 35.5412C102.904 35.3617 103.145 35.3258 103.172 35.1373C103.217 34.7603 103.494 34.4731 103.69 34.1948C103.959 33.8089 104.129 33.3691 104.495 33.028C104.79 32.7587 105.059 32.4266 105.363 32.1573C105.72 31.8342 106.042 31.4662 106.355 31.1071C106.972 30.416 107.482 29.6441 107.876 28.8003C107.92 28.7106 107.974 28.6388 108.046 28.567C108.171 28.4592 108.251 28.3336 108.26 28.1541C108.296 27.7142 108.475 27.2924 108.645 26.9064C108.815 26.5115 108.824 26.1435 108.841 25.7485C108.841 25.7036 108.85 25.6229 108.877 25.6139C109.19 25.5331 109.074 25.2818 109.074 25.0933C109.083 24.079 109.083 23.0558 109.074 22.0415C109.074 21.8979 109.128 21.7273 109.011 21.6196C108.806 21.4401 108.833 21.2157 108.833 21.0003C108.833 20.8746 108.815 20.7489 108.77 20.6233C108.6 20.1924 108.448 19.7616 108.296 19.3218C108.224 19.1064 108.251 18.8371 107.965 18.7383C107.867 18.7024 107.894 18.5678 107.867 18.478C107.804 18.2357 107.813 17.9574 107.67 17.751C107.402 17.365 107.276 16.9342 107.169 16.4854C107.151 16.4136 107.178 16.3148 107.116 16.261C106.668 15.884 106.633 15.2916 106.472 14.7889C106.32 14.3222 106.007 13.9721 105.855 13.5323C105.837 13.4874 105.792 13.4605 105.756 13.4336C105.399 13.1643 105.068 12.8591 104.683 12.6527C104.057 12.3116 103.395 12.0423 102.796 11.6384C102.716 11.5845 102.626 11.5486 102.528 11.5486C102.447 11.5486 102.367 11.5486 102.295 11.4948C101.83 11.1268 101.285 10.9203 100.748 10.7049C100.632 10.66 100.471 10.6331 100.409 10.5433C100.248 10.3189 100.015 10.292 99.7915 10.2471C99.5679 10.2023 99.2996 10.1664 99.1744 10.0317C98.8167 9.63678 98.307 9.63678 97.8777 9.43033C97.6273 9.30467 97.3233 9.19696 97.0729 9.0713C96.7957 8.93666 96.5274 8.83792 96.2412 8.81997C95.9372 8.80202 95.6868 8.73021 95.4185 8.59557C94.8104 8.29039 94.1576 8.47889 93.5226 8.46093C93.4869 8.46093 93.4422 8.50581 93.4064 8.54172C93.147 8.77509 92.843 8.8469 92.5121 8.80202C92.1544 8.75714 91.8325 8.98154 91.4748 8.92768C91.3049 9.25081 90.9829 9.08925 90.7415 9.17003C90.4106 9.28672 90.0976 9.44828 89.7309 9.42136C89.6862 9.42136 89.6326 9.44828 89.6057 9.48419C89.4716 9.63678 89.2927 9.65473 89.1228 9.63678C88.3627 9.55599 87.6384 9.80732 86.8782 9.78937C86.5921 9.78039 86.288 9.91503 85.984 9.89708C85.8945 9.8881 85.823 9.93298 85.7693 9.98684C85.6441 10.1215 85.4832 10.1125 85.3222 10.1125C85.0271 10.1125 84.7409 10.1933 84.5174 10.3459C84.3564 10.4536 84.2044 10.5254 84.0345 10.6062C83.7215 10.7498 83.3369 10.7408 83.1134 11.046C82.702 11.037 82.6126 11.4499 82.3532 11.6384C81.9687 11.9256 81.6199 12.2847 81.3427 12.6706C81.2175 12.8502 80.9671 12.9309 80.9313 13.1553C80.8866 13.4156 80.6273 13.4695 80.5021 13.6311C80.198 14.0529 79.8046 14.385 79.4469 14.753C78.9818 15.2198 78.5258 15.7045 78.0697 16.1802C77.8372 16.4226 77.4884 16.6829 77.5868 17.2483C77.864 16.7008 78.3201 16.4405 78.6062 16.0186C78.651 15.9558 78.6599 15.8661 78.7404 15.8301C79.116 15.6865 79.2412 15.2826 79.5363 15.0403C79.894 14.7441 80.1623 14.3222 80.52 14.008C80.8509 13.7208 81.2086 13.4785 81.7183 13.6311C81.611 13.7567 81.7183 13.9991 81.5305 14.035C81.1549 14.1068 80.9492 14.403 80.6899 14.6184C80.198 15.0133 79.8224 15.5339 79.5452 16.1084C79.4111 16.3956 79.3395 16.7098 79.3753 17.0419C79.3932 17.2214 79.3843 17.4099 79.2054 17.5086C78.9639 17.6523 78.7136 17.8408 78.4542 17.8767C77.8998 17.9485 77.5778 18.3793 77.1575 18.6486C77.1754 18.8999 76.8445 18.9807 76.8714 19.2679C76.925 19.8693 76.8624 20.4707 76.6657 21.0362C76.7104 21.0631 76.7283 21.0721 76.7372 21.0721C76.8088 21.0811 76.8535 21.0362 76.9071 21.0003C77.6851 20.4976 78.5258 20.2104 79.4558 20.2463C79.8224 20.2642 80.198 20.2642 80.5647 20.2912C81.5663 20.345 82.4874 20.6682 83.3101 21.2516C83.5337 21.4132 83.7393 21.6017 83.8824 21.835C84.1149 22.1941 84.0792 22.589 83.8109 22.8583C83.5605 23.1096 83.2028 23.1276 82.8361 22.9121C82.7825 22.8762 82.7288 22.8403 82.6752 22.8044C82.1923 22.4364 81.6646 22.1761 81.0744 22.0505C79.8672 21.7812 78.6688 21.5478 77.5242 22.2838C77.5152 22.2928 77.4973 22.3018 77.4795 22.3018C77.2559 22.3915 77.0413 22.3915 76.8356 22.2569C76.764 22.212 76.7014 22.1043 76.5852 22.1761C76.5047 22.2838 76.5226 22.3826 76.5584 22.4992C76.6925 22.9032 76.7909 23.3161 76.8892 23.7379C76.9518 24.0072 77.0949 24.2675 77.2201 24.5188C77.4705 25.0125 77.9445 25.3536 78.2128 25.8383C78.2575 25.9101 78.3648 25.955 78.4453 25.9998C78.8119 26.1704 79.1875 26.1973 79.5721 26.0806C79.9566 25.9639 80.3322 25.8114 80.7167 25.7126C81.1728 25.5959 81.5931 25.4164 81.9597 25.1112C82.3085 24.824 82.702 24.8689 82.9524 25.1651C83.2117 25.4523 83.1849 25.8203 82.8808 26.1704C82.5768 26.5115 82.2012 26.7538 81.763 26.9154C81.5931 26.9782 81.3069 26.9513 81.3427 27.2116C81.3695 27.4091 81.6199 27.4539 81.8077 27.4988C81.9776 27.5437 82.1565 27.5437 82.3353 27.5617C82.4784 27.5796 82.6215 27.5796 82.7646 27.6065C83.1223 27.6783 83.2207 27.804 83.2296 28.163C83.2386 28.4054 83.2296 28.6477 83.2296 28.8901C83.2296 28.9709 83.2296 29.0696 83.328 29.0786C83.3816 29.0876 83.4532 29.0427 83.4979 29.0068C83.632 28.8901 83.7483 28.7555 83.8824 28.6388C84.267 28.3067 84.6157 28.2977 84.9108 28.5759C85.2059 28.8632 85.2059 29.2222 84.884 29.6082C84.6873 29.8415 84.4816 30.0659 84.2848 30.2993C84.1865 30.425 84.097 30.5596 84.0076 30.6942C83.9182 30.8289 83.8914 30.9635 84.0434 31.0802C84.1686 31.17 84.3027 31.2238 84.4369 31.0982C84.5621 30.9725 84.7052 30.9276 84.8751 30.9545C85.2864 30.9994 85.7157 31.0174 86.1092 31.161C86.3417 31.2508 86.5742 31.2597 86.8156 31.2418C87.531 31.1789 88.2107 31.2418 88.8814 31.5918ZM129.982 87.2065C129.982 87.5745 130 87.9515 129.973 88.3195C129.946 88.7863 129.705 89.1723 129.293 89.3697C128.873 89.5672 128.444 89.4595 128.086 89.1453C127.916 88.9927 127.737 88.8581 127.585 88.6876C127.228 88.3106 126.745 88.0952 126.396 87.7002C125.457 86.6321 124.438 85.6537 123.418 84.6664C123.042 84.2983 122.703 84.3522 122.443 84.8189C122.229 85.1959 122.166 85.6088 122.184 86.0307C122.22 86.659 122.264 87.2873 122.3 87.9156C122.318 88.2657 122.354 88.6247 122.291 88.9748C122.202 89.4954 121.916 89.7108 121.388 89.7108C121.021 89.7108 120.735 89.5582 120.503 89.2979C120.297 89.0735 120.082 88.8491 119.859 88.6427C119.626 88.4273 119.403 88.1849 119.206 87.9336C118.437 86.9462 117.677 85.9409 116.97 84.8997C116.881 84.7651 116.783 84.5946 116.595 84.6843C116.407 84.7651 116.371 84.9536 116.407 85.1421C116.434 85.2947 116.505 85.4473 116.559 85.5998C116.622 85.7704 116.72 85.923 116.747 86.0935C116.881 87.0539 117.122 87.9964 117.158 88.9658C117.176 89.4685 117.176 89.9621 117.024 90.4558C116.747 91.3534 115.853 91.4342 115.28 91.0482C114.905 90.7879 114.601 90.4648 114.305 90.1147C113.688 89.3608 113.125 88.5619 112.785 87.6553C112.436 86.7218 112.061 85.7883 111.855 84.81C111.819 84.6574 111.864 84.3791 111.632 84.4061C111.444 84.433 111.453 84.6933 111.462 84.8638C111.506 86.2192 111.462 87.5745 111.766 88.903C111.837 89.2171 111.945 89.5223 112.007 89.8365C112.258 90.9764 112.723 92.0445 113.223 93.0947C113.599 93.8936 114.144 94.5847 114.762 95.1861C115.441 95.8414 116.228 96.3799 117.087 96.8108C117.811 97.1698 118.58 97.4211 119.304 97.7532C119.51 97.852 119.707 97.825 119.886 97.6545C120.056 97.4839 120.073 97.2865 119.984 97.0711C119.93 96.9364 119.877 96.8018 119.814 96.6671C119.465 96.0119 119.126 95.3567 118.768 94.7014C118.58 94.3514 118.455 94.0013 118.473 93.5974C118.5 93.0229 118.696 92.8165 119.287 92.8434C119.814 92.8703 120.297 93.0678 120.735 93.3281C121.594 93.8308 122.443 94.3603 123.293 94.8809C123.883 95.24 124.527 95.5182 125.18 95.7247C126.02 95.985 126.664 95.6708 127.031 94.863C127.219 94.4501 127.353 94.0192 127.46 93.5794C127.55 93.1845 127.684 92.7985 127.872 92.4485C128.14 91.9368 128.56 91.6496 129.15 91.6586C129.857 91.6676 130.527 91.8381 131.145 92.1612C131.762 92.4844 132.397 92.7626 132.996 93.1037C133.273 93.2653 133.604 93.3371 133.854 93.5435C134.248 93.8577 134.686 94.0821 135.133 94.3244C135.5 94.5219 135.884 94.6835 136.233 94.9258C136.43 95.0605 136.653 95.3028 136.922 95.0694C137.19 94.845 137.056 94.5578 136.948 94.3065C136.707 93.7589 136.448 93.2294 136.188 92.6908C135.732 91.7483 135.321 90.779 134.99 89.7826C134.838 89.3249 134.713 88.8581 134.748 88.3555C134.793 87.6823 135.222 87.2424 135.893 87.2155C136.635 87.1886 137.369 87.2694 138.048 87.6105C138.236 87.7002 138.442 87.763 138.639 87.8079C138.987 87.8887 139.318 87.9964 139.649 88.14C139.944 88.2657 140.239 88.4003 140.543 88.517C140.865 88.6427 141.116 88.6068 141.205 88.4362C141.33 88.1849 141.107 88.0503 140.981 87.9067C139.98 86.8026 138.799 85.905 137.583 85.0613C137.252 84.8369 136.966 84.5407 136.591 84.3791C135.974 84.1098 135.401 83.7418 134.802 83.4277C133.97 82.9879 133.094 82.7635 132.182 82.6468C131.109 82.5032 130.259 83.1404 130.036 84.2086C130 84.3791 129.991 84.5586 129.955 84.7382C129.821 85.5639 130.027 86.3897 129.982 87.2065ZM131.413 55.6473C131.538 55.6383 131.672 55.6383 131.797 55.6293C131.94 55.6203 132.084 55.6203 132.236 55.6114C132.513 55.6024 132.772 55.5126 133.014 55.369C133.344 55.1536 133.362 54.983 133.058 54.7407C132.71 54.4535 132.298 54.3278 131.86 54.265C131.493 54.2111 131.136 54.1393 130.796 53.9688C130.045 53.5918 129.284 53.2417 128.721 52.5865C128.703 52.5596 128.667 52.5506 128.641 52.5236C127.889 51.9941 127.237 51.3298 126.628 50.6477C125.681 49.5706 124.715 48.5024 123.928 47.3086C123.436 46.5726 122.881 45.8815 122.416 45.1185C121.907 44.2748 121.406 43.4311 120.834 42.6322C120.279 41.8603 119.725 41.0883 119.081 40.3882C118.625 39.8945 118.079 39.5355 117.534 39.1585C117.4 39.0688 117.239 39.0239 117.078 39.1316C116.908 39.2483 116.89 39.4188 116.926 39.6073C116.944 39.6881 116.952 39.7689 116.997 39.8407C117.328 40.3972 117.525 41.0165 117.82 41.591C117.936 41.8244 118.097 42.0218 118.196 42.2642C118.509 43.0182 118.822 43.7811 119.152 44.5351C119.313 44.9121 119.322 45.2891 119.26 45.675C119.206 45.9892 119.018 46.2136 118.705 46.2854C118.339 46.3662 117.954 46.4021 117.632 46.1867C116.997 45.7558 116.335 45.3429 115.87 44.7056C115.459 44.1491 115.048 43.5926 114.601 43.063C114.198 42.5783 113.805 42.0847 113.447 41.573C113.375 41.4653 113.286 41.3666 113.197 41.2768C113.009 41.0973 112.875 41.1153 112.714 41.3217C112.544 41.5461 112.544 41.7885 112.58 42.0577C112.687 42.8835 112.678 43.7273 112.499 44.5171C112.231 45.7289 111.623 46.806 110.728 47.6856C109.959 48.4396 109.083 49.0769 108.224 49.7321C107.661 50.154 107.196 50.6567 106.767 51.2042C106.642 51.3568 106.561 51.5453 106.624 51.7427C106.785 52.2274 107.017 52.6673 107.464 52.9455C107.715 53.0981 108.01 53.2238 108.287 53.1071C108.841 52.8737 109.441 52.8199 110.004 52.6314C111.954 51.9851 113.671 52.4159 115.227 53.7085C115.781 54.1752 116.335 54.642 116.908 55.0818C117.292 55.369 117.516 55.3152 117.802 54.9292C117.883 54.8305 117.945 54.7138 117.999 54.5971C118.187 54.256 118.348 53.9059 118.553 53.5738C118.795 53.1699 119.072 52.7929 119.501 52.5685C120.145 52.2274 120.807 52.2813 121.477 52.4339C122.461 52.6583 123.347 53.125 124.232 53.5918C124.858 53.9149 125.484 54.256 126.128 54.5342C126.584 54.7317 127.058 54.8933 127.523 55.0638C128.784 55.5036 130.089 55.6742 131.413 55.6473ZM144.746 114.359C145.086 114.368 145.301 114.314 145.354 114.161C145.462 113.874 145.185 113.784 145.05 113.614C145.041 113.605 145.024 113.596 145.015 113.578C143.476 112.303 142.466 110.607 141.375 108.973C141.348 108.937 141.33 108.892 141.303 108.847C140.758 107.914 140.373 106.9 139.989 105.894C139.738 105.221 139.604 104.503 139.425 103.794C139.408 103.731 139.417 103.668 139.417 103.606C139.381 103.103 139.3 103.022 138.791 103.067C137.843 103.139 136.922 103.363 135.991 103.561C134.704 103.848 133.407 104.054 132.084 104.153C130.733 104.261 129.383 104.108 128.032 104.081C127.818 104.072 127.63 103.991 127.442 103.893C127.201 103.767 126.95 103.659 126.7 103.543C126.575 103.489 126.441 103.48 126.351 103.606C126.271 103.713 126.307 103.83 126.387 103.92C126.736 104.306 126.968 104.772 127.308 105.167C128.068 106.047 128.927 106.828 129.749 107.645C130.393 108.282 131.091 108.838 131.887 109.269C131.985 109.323 132.075 109.395 132.155 109.467C132.647 109.853 133.148 110.23 133.675 110.571C134.114 110.849 134.561 111.1 134.99 111.379C135.714 111.863 136.519 112.186 137.279 112.599C137.968 112.967 138.728 113.12 139.452 113.389C141.169 114.027 142.94 114.287 144.746 114.359ZM60.8729 24.7432C60.855 24.5368 60.8371 24.3214 60.8192 24.1149C60.7298 23.343 60.3542 22.7147 59.8534 22.1492C59.5851 21.853 59.4599 21.8709 59.1738 22.1402C58.9323 22.3736 58.6998 22.6249 58.5299 22.9211C58.3779 23.1724 58.199 23.3968 57.9755 23.5853C57.6982 23.8277 57.3942 23.9623 57.0096 23.9533C56.4373 23.9354 55.9991 23.6661 55.5878 23.325C54.8634 22.7326 54.2642 22.0056 53.6383 21.3144C53.5399 21.2067 53.4505 21.0721 53.2805 21.117C53.1017 21.1618 53.048 21.3234 53.0033 21.485C52.9765 21.5927 52.9944 21.7094 53.0033 21.8171C53.057 22.4903 53.1106 23.1635 53.1553 23.8367C53.1643 23.9533 53.1643 24.0611 53.1464 24.1777C53.1017 24.5458 52.8692 24.7432 52.5025 24.7701C51.9749 24.7971 51.6172 24.5278 51.34 24.1239C50.7229 23.2173 50.088 22.3197 49.6051 21.3324C49.3994 20.9105 49.1311 20.5245 48.8629 20.1476C48.8003 20.0578 48.7198 19.9501 48.5856 20.0219C48.4694 20.0847 48.4962 20.2194 48.523 20.3271C48.532 20.372 48.5499 20.4258 48.5678 20.4617C48.7555 20.8118 48.8003 21.1977 48.8986 21.5747C49.0685 22.212 49.2027 22.8673 49.4084 23.4866C49.5962 24.088 49.6409 24.7163 49.8466 25.3177C49.9539 25.6408 49.9092 25.9909 49.8823 26.332C49.8555 26.673 49.6945 26.8077 49.3547 26.8436C49.0507 26.8705 48.7913 26.7808 48.5767 26.5564C48.2548 26.2153 47.9239 25.8832 47.6377 25.5151C47.5572 25.4074 47.4589 25.3087 47.3158 25.3626C47.1637 25.4164 47.1012 25.56 47.0922 25.7036C47.0833 25.7934 47.1011 25.8921 47.128 25.9909C47.1637 26.1524 47.2174 26.305 47.2442 26.4576C47.3784 27.2834 47.7629 27.9925 48.3174 28.5849C49.0328 29.3568 49.8466 30.03 50.7945 30.4788C51.7961 30.9545 52.7976 31.4303 53.8708 31.7444C54.7561 32.0047 55.4 31.8162 55.9455 31.0712C56.1601 30.775 56.3837 30.4698 56.5536 30.1377C56.8397 29.5723 57.3137 29.2761 57.8771 29.0876C58.1364 28.9978 58.3868 28.8991 58.6372 28.7824C59.3347 28.4413 59.7729 27.8579 60.2111 27.2565C60.7477 26.5025 60.8103 25.6318 60.8729 24.7432ZM100.856 51.8864C100.847 52.0479 100.838 52.2903 100.82 52.5326C100.793 52.7839 100.713 53.0083 100.426 53.0802C100.14 53.152 99.8183 53.0622 99.6663 52.8019C99.4248 52.407 99.1834 52.003 99.1029 51.5273C99.0671 51.3209 99.0224 51.1144 98.9598 50.917C98.5574 49.7232 98.1102 48.5473 97.7704 47.3356C97.7078 47.1202 97.6184 46.9047 97.4664 46.7342C97.3501 46.6085 97.2428 46.6265 97.1623 46.7791C97.0461 47.0124 97.0997 47.2548 97.1623 47.4882C97.3859 48.3678 97.5111 49.2654 97.6542 50.154C97.8688 51.4465 97.9225 52.757 97.9851 54.0585C98.0566 55.4767 98.0029 56.8949 97.842 58.3131C97.8241 58.5016 97.7704 58.6901 97.7346 58.8876C97.6005 59.5877 97.3412 60.2519 97.0908 60.9161C96.9298 61.338 97.0639 61.697 97.4127 61.9932C97.7168 62.2446 98.0208 62.1548 98.307 61.9842C98.9419 61.5983 99.5142 61.1226 99.8988 60.4673C100.042 60.216 100.194 59.9647 100.328 59.7133C100.73 58.9235 101.133 58.1156 101.231 57.227C101.303 56.5987 101.526 56.0422 101.804 55.4947C102.108 54.8933 102.814 54.7856 103.261 55.2972C103.395 55.4498 103.512 55.6383 103.61 55.8178C104.039 56.6526 104.612 57.3976 105.184 58.1336C105.443 58.4657 105.81 58.6901 106.132 58.9504C106.168 58.9773 106.212 59.0042 106.257 59.0132C106.373 59.0581 106.481 59.0491 106.57 58.9504C106.642 58.8696 106.651 58.7709 106.606 58.6811C106.534 58.5375 106.454 58.3939 106.355 58.2682C105.64 57.3617 105.193 56.3025 104.621 55.3152C104.129 54.4714 103.887 53.5289 103.628 52.5955C103.333 51.5453 103.333 50.531 103.86 49.5436C104.03 49.2295 104.2 48.9243 104.415 48.6371C104.647 48.3409 104.594 48.1255 104.29 47.9011C104.084 47.7485 103.878 47.7574 103.655 47.8562C103.073 48.0985 102.519 48.3768 102.09 48.8615C101.321 49.7142 100.748 50.6208 100.856 51.8864ZM107.876 55.6203C107.384 55.6203 107.098 56.0063 107.294 56.3833C107.876 57.5143 108.779 58.358 109.736 59.1479C109.897 59.2825 110.093 59.3992 110.308 59.2735C110.523 59.1479 110.585 58.9145 110.558 58.6811C110.541 58.4747 110.496 58.2593 110.415 58.0708C110.263 57.7027 110.093 57.3347 109.906 56.9757C109.602 56.4102 109.083 56.0781 108.537 55.8088C108.341 55.7011 108.099 55.6383 107.876 55.6203Z" fill="#AE1D74"></path>
<path d="M24.198 87.3502C24.6899 87.3053 25.2712 87.3412 25.8345 87.4669C25.9419 87.4938 26.0671 87.5207 26.1297 87.3861C26.1833 87.2604 26.0939 87.1707 26.0045 87.0988C25.8435 86.9732 25.6646 86.8565 25.4947 86.7308C24.6452 86.1205 23.9119 85.3665 23.0534 84.7651C22.8298 84.6125 22.6599 84.3881 22.481 84.1817C22.0697 83.688 22.1591 82.9071 22.6778 82.5122C23.6704 81.7582 24.7883 81.435 26.0313 81.5607C26.4784 81.6056 26.9256 81.6954 27.3727 81.7492C28.1239 81.839 28.7856 82.189 29.4653 82.4763C30.6099 82.961 31.7457 83.4457 32.7472 84.1907C33.0155 84.3881 33.2838 84.6035 33.5342 84.8279C33.6415 84.9267 33.7578 85.0344 33.9187 84.9536C34.0529 84.8818 34.0439 84.7472 34.0529 84.6125C34.0797 84.2266 34.2138 84.1278 34.5805 84.2625C34.8935 84.3792 35.1171 84.3343 35.3853 84.1458C35.7073 83.9214 36.0829 83.7957 36.4674 83.7778C37.2544 83.7419 38.0503 83.679 38.8193 83.9034C39.0787 83.9752 39.2128 83.8765 39.3112 83.6611C39.3559 83.5623 39.4095 83.4546 39.4453 83.3469C39.7136 82.575 40.0802 81.8659 40.5632 81.2107C40.7509 80.9504 40.7331 80.9145 40.4737 80.6362C39.9014 80.0438 39.3291 79.4604 38.7567 78.8679C38.408 78.5089 38.086 78.1229 37.7909 77.728C37.5316 77.3779 37.2722 77.0369 36.9414 76.7407C36.6015 76.4355 36.5032 75.9597 36.3601 75.5379C36.1097 74.7839 35.9756 74.003 35.8504 73.2221C35.7609 72.6207 35.8056 72.0283 35.9755 71.4449C36.1633 70.7986 36.6373 70.3857 37.6478 70.3049C38.551 70.2241 39.3827 70.5204 40.1071 71.014C40.9477 71.5795 41.7615 72.1899 42.5216 72.8631C43.1118 73.3837 43.7289 73.8773 44.3638 74.3441C44.7215 74.6044 45.1686 74.739 45.5442 74.9904C45.7052 75.0981 45.8483 75.0173 45.9735 74.9006C46.7604 74.2094 47.5384 73.5093 48.3343 72.8272C49.1928 72.1001 50.105 71.4359 51.0261 70.7896C52.0187 70.0985 53.0024 69.4073 54.0666 68.8239C55.1844 68.2135 56.3291 67.684 57.6079 67.4775C58.1624 67.3878 58.7168 67.3249 59.2802 67.298C60.2907 67.2531 61.0866 67.7019 61.6768 68.4379C63.0987 70.2152 64.5117 71.9924 65.5222 74.0569C65.9514 74.9275 66.2018 75.861 66.3539 76.8304C66.5685 78.1768 66.3986 79.4604 65.9246 80.726C65.5043 81.83 65.1019 82.934 64.4759 83.9393C63.8141 85.0075 63.1077 86.0487 62.2671 86.9911C62.0077 87.2784 61.7663 87.5835 61.5069 87.8708C61.3012 88.0952 61.2744 88.3285 61.3728 88.6248C61.8736 90.0699 62.4548 91.4881 62.8752 92.9601C63.2418 94.2437 63.6353 95.5182 63.8499 96.8556C63.984 97.6725 64.0466 98.4713 63.984 99.3061C63.9393 99.9254 64.1808 100.545 64.2702 101.164C64.3954 101.99 64.7531 102.735 65.0303 103.507C65.2539 104.117 65.6921 104.611 66.0498 105.149C66.5506 105.912 67.2571 106.478 67.8562 107.16C68.1335 107.474 68.3838 107.806 68.5895 108.174C68.7773 108.515 69.0367 108.812 69.3765 109.009C69.8147 109.26 70.1456 109.637 70.4496 110.041C70.9325 110.688 71.487 111.271 72.0146 111.872C72.7837 112.743 73.66 113.506 74.4023 114.404C74.6348 114.691 74.8941 114.96 75.1535 115.22C75.4575 115.517 75.6811 115.876 75.9315 116.208C76.3518 116.755 76.7989 117.285 77.2282 117.832C77.3713 118.012 77.5143 118.182 77.5322 118.425C77.559 118.793 77.5322 119.179 77.1745 119.358C76.7542 119.574 76.3071 119.556 75.8868 119.322C75.8063 119.277 75.7347 119.197 75.6721 119.134C74.1519 117.653 72.6406 116.163 71.2545 114.538C70.539 113.694 69.761 112.896 68.8936 112.186C68.6521 111.989 68.4286 111.774 68.2497 111.531C67.6237 110.688 66.8904 109.943 66.1661 109.189C65.1555 108.129 64.2344 106.989 63.1255 106.02C62.7947 105.733 62.4638 105.455 62.0793 105.248C61.7215 105.06 61.3996 104.817 61.0866 104.566C60.5232 104.108 60.4606 103.39 60.9167 102.816C61.5963 101.945 61.9898 100.958 62.1329 99.8626C62.1597 99.6741 62.1687 99.4766 62.115 99.2881C61.802 98.0225 61.489 96.7479 61.0151 95.5272C60.8273 95.0425 60.6663 94.5578 60.4875 94.0731C60.4249 93.9026 60.4159 93.7231 60.398 93.5525C60.3891 93.4089 60.3623 93.2653 60.3265 93.1217C60.2907 92.996 60.2102 92.8793 60.0582 92.8793C59.9062 92.8704 59.8346 92.987 59.7899 93.1127C59.5306 93.8398 59.1013 94.4591 58.6363 95.0605C58.1176 95.7426 57.5543 96.3799 56.7494 96.739C56.6779 96.7749 56.6063 96.8198 56.5527 96.8736C56.4454 96.9723 56.4632 97.0711 56.5795 97.1608C56.6063 97.1788 56.6332 97.2057 56.66 97.2057C57.3486 97.3493 57.6437 97.9417 58.0461 98.4085C58.3144 98.7137 58.3412 99.0817 58.3144 99.4587C58.2876 99.7638 58.0998 99.9882 57.8136 100.042C57.3843 100.132 56.9193 100.186 56.5616 99.8895C55.6316 99.1266 54.5137 98.8663 53.378 98.597C52.2781 98.3367 51.1513 98.2469 50.0692 97.9597C49.1392 97.7084 48.2181 97.4211 47.4311 96.8197C47.2165 96.6492 47.0108 96.4697 46.8409 96.2543C46.5011 95.8234 46.1434 95.4105 45.741 95.0335C45.5621 94.863 45.4101 94.6835 45.2759 94.477C44.9272 93.9116 44.4264 93.4717 43.9971 92.9691C43.5858 92.4844 43.2281 91.9638 42.924 91.4252C42.2265 90.1866 41.4127 89.0287 40.6168 87.8528C40.0802 87.0629 39.3738 86.4167 38.5689 85.9051C38.3275 85.7525 38.0681 85.6986 37.7909 85.6627C37.6299 85.6448 37.46 85.6537 37.3706 85.8243C37.2901 85.9858 37.4064 86.1025 37.5048 86.2102C37.8625 86.6411 38.2559 87.054 38.6584 87.4489C38.8551 87.6464 39.0339 87.8439 39.2396 88.0323C39.8656 88.6068 40.125 89.4146 40.4558 90.1596C40.8493 91.0393 41.2517 91.9189 41.6899 92.7806C42.146 93.6692 42.6021 94.5578 43.2012 95.3746C43.3175 95.5272 43.389 95.7067 43.4785 95.8863C43.6484 96.2184 43.8004 96.5595 44.0508 96.8377C44.4174 97.2326 44.4264 97.7173 44.3906 98.202C44.3727 98.4893 44.1939 98.6329 43.8809 98.6867C43.389 98.7675 42.9508 98.6598 42.5663 98.3456C42.0834 97.9507 41.6005 97.5468 41.1355 97.1249C40.5542 96.6043 40.1518 95.9491 39.803 95.24C39.3738 94.3603 38.9177 93.4807 38.3722 92.6639C37.9072 91.9728 37.3527 91.3355 36.7267 90.77C36.3154 90.402 36.0024 89.9442 35.6357 89.5403C35.1975 89.0466 34.661 88.6966 34.1244 88.3465C33.5968 88.0054 33.096 87.6284 32.5773 87.2694C31.3254 86.3987 30.1002 85.4832 28.7767 84.7113C28.0344 84.2804 27.2117 84.047 26.3443 83.9932C26.228 83.9842 26.1207 83.9842 26.0134 84.0291C25.7183 84.1368 25.6557 84.3612 25.8882 84.5766C26.1923 84.8639 26.5321 85.1152 26.8451 85.3845C27.945 86.3449 29.0092 87.3591 30.1539 88.2747C31.4058 89.271 32.5058 90.4289 33.6594 91.5329C34.4553 92.3049 35.2154 93.1217 35.9308 93.9744C36.4942 94.6476 36.9414 95.4285 37.4958 96.1196C38.2828 97.098 38.9803 98.1572 39.8477 99.0637C40.6615 99.9164 41.5826 100.643 42.6379 101.191C42.8525 101.299 43.076 101.397 43.2817 101.532C44.1849 102.142 45.2044 102.51 46.2239 102.861C46.5548 102.977 46.8946 103.085 47.2076 103.247C47.3059 103.3 47.4132 103.345 47.5206 103.381C48.1734 103.552 48.8173 103.794 49.479 103.875C50.4359 103.983 51.3123 104.351 52.2334 104.566C52.761 104.692 53.2349 104.934 53.6016 105.338C53.8967 105.661 54.165 106.002 54.4064 106.361C54.8446 107.016 55.2739 107.681 55.6584 108.372C55.7836 108.596 55.9177 108.838 56.0966 109C56.8478 109.673 57.2591 110.58 57.8136 111.388C58.5379 112.438 59.2265 113.506 59.9598 114.547C60.2728 114.996 60.5411 115.472 60.8452 115.929C61.5248 116.989 62.276 118.003 62.9109 119.08C63.2865 119.699 63.7963 120.229 64.0824 120.902C64.3596 121.539 64.6279 122.177 64.5743 122.904C64.5385 123.353 64.4312 123.756 63.9751 123.918C63.528 124.08 63.0898 124.035 62.7321 123.649C62.2134 123.092 61.7841 122.464 61.4086 121.809C60.8094 120.741 60.2013 119.681 59.5932 118.613C59.0209 117.599 58.2697 116.71 57.6347 115.741C56.6421 114.233 55.408 112.905 54.3081 111.486C53.852 110.903 53.3691 110.346 52.8683 109.799C52.0724 108.928 51.1871 108.156 50.2839 107.402C49.6936 106.909 49.014 106.541 48.3165 106.191C47.3059 105.679 46.2328 105.338 45.1776 104.952C43.6841 104.404 42.2086 103.803 40.6883 103.327C39.8477 103.067 39.0161 102.753 38.3722 102.08C38.0055 101.694 37.5226 101.496 36.995 101.451C36.7714 101.433 36.5479 101.371 36.3511 101.263C35.6 100.859 34.7593 100.769 33.9366 100.626C32.3269 100.356 30.7083 100.258 29.0807 100.24C27.2117 100.222 25.3516 100.428 23.5184 100.778C22.2754 101.02 21.0413 101.317 19.7982 101.586C19.217 101.712 18.6178 101.756 18.0186 101.703C17.0528 101.604 16.6593 101.146 16.6325 100.24C16.5967 98.9291 17.1423 97.861 17.9382 96.8916C18.1975 96.5864 18.5015 96.3171 18.7788 96.0209C19.047 95.7337 19.3779 95.5362 19.7088 95.3387C21.4526 94.2526 23.4021 94.0193 25.3874 93.8757C25.5931 93.8577 25.8077 93.8577 26.0134 93.8397C26.0939 93.8308 26.1744 93.7949 26.1923 93.7051C26.2101 93.6154 26.1565 93.5435 26.0849 93.5076C25.7541 93.3012 25.4053 93.1217 25.0297 93.0409C23.8582 92.7626 22.7135 92.3587 21.5152 92.1882C20.451 92.0356 19.4048 91.7573 18.3227 91.6586C17.8756 91.6227 17.4374 91.5329 17.2496 91.0572C17.0618 90.5635 17.1154 90.0788 17.4463 89.639C18.2064 88.6158 19.1991 88.0144 20.4689 87.8259C21.2022 87.7182 21.9176 87.5476 22.6509 87.4399C23.1517 87.3322 23.6257 87.3322 24.198 87.3502ZM51.5984 81.6774C51.8667 81.5428 52.1082 81.7672 52.3049 81.7043C52.7878 81.5607 53.2618 81.6146 53.7357 81.6235C54.4511 81.6415 55.1755 81.5158 55.882 81.7402C55.9535 81.7672 56.0787 81.7582 56.0877 81.6684C56.1234 81.444 56.4454 81.453 56.4543 81.2017C56.4543 81.1568 56.5616 81.076 56.5884 81.085C56.8567 81.2196 56.8478 80.9414 56.8567 80.8606C56.9014 80.6272 56.9014 80.3759 56.8925 80.1425C56.8836 79.8553 56.9819 79.5411 56.8388 79.2808C56.66 78.9487 56.66 78.6076 56.66 78.2576C56.6689 77.6472 56.6779 77.0279 56.66 76.4175C56.651 76.0405 56.6689 75.6815 56.9551 75.3853C57.0803 75.2507 57.0624 75.0711 57.0266 74.8916C57.2323 74.9006 57.3665 74.7839 57.4827 74.6313C57.5095 74.5954 57.5632 74.5416 57.5453 74.5057C57.4648 74.2633 57.6705 74.1915 57.7957 74.1017C57.9209 74.021 58.0193 73.9132 58.1445 73.8504C58.681 73.5722 59.1192 73.1413 59.7094 72.9438C60.1476 72.8002 60.5948 72.5669 60.711 72.0642C60.9167 71.1666 61.033 70.278 60.2907 69.5061C60.0314 69.2368 59.7989 69.0573 59.4054 69.0573C58.9135 69.0483 58.4128 69.156 57.9209 68.9855C57.8583 68.9585 57.8494 69.0034 57.8225 69.0483C57.7152 69.2637 57.5185 69.2907 57.3128 69.2907C57.1697 69.2907 57.0356 69.2996 56.8925 69.3535C56.1145 69.6407 55.3991 70.0626 54.6568 70.4216C54.5316 70.4844 54.3975 70.5473 54.2902 70.655C54.1113 70.8435 53.8878 70.9781 53.6105 70.9691C53.5032 70.9691 53.4674 70.9961 53.5032 71.1128C53.5479 71.2564 53.4138 71.3102 53.3333 71.3641C52.6894 71.7949 52.1082 72.3066 51.4375 72.7105C51.2497 72.8182 51.0529 72.9349 50.892 73.1054C50.6594 73.3478 50.4001 73.5632 50.0335 73.5363C49.9172 73.5273 49.9619 73.5991 49.9351 73.644C49.792 73.8773 49.631 74.1197 49.3628 74.1915C48.9872 74.2902 48.9782 74.2723 48.8441 74.6134C48.8172 74.6762 48.7815 74.6941 48.7457 74.6762C48.4774 74.5775 48.3701 74.6762 48.3791 74.9544C48.3791 75.0981 48.2449 75.2148 48.1465 75.2327C48.0124 75.2507 47.9587 75.3225 47.8872 75.4032C47.3328 75.9687 46.7694 76.5163 46.2239 77.0907C46.054 77.2702 45.7767 77.3151 45.6605 77.5305C45.4548 77.9075 45.1329 78.1768 44.8378 78.464C44.4622 78.832 44.0955 79.2001 43.7915 79.6309C43.55 79.963 43.1744 80.1964 43.0403 80.6182C43.0313 80.6452 42.9956 80.6631 42.9687 80.6811C42.7452 80.7708 42.6289 80.9145 42.6379 81.1748C42.6379 81.2914 42.5663 81.4081 42.3785 81.3543C42.307 81.3363 42.1281 81.4889 42.1997 81.5697C42.459 81.8569 42.1192 81.9377 42.0297 81.9646C41.7615 82.0454 41.6542 82.1531 41.7346 82.4404C41.7794 82.584 41.7794 82.7455 41.529 82.6917C41.3859 82.6648 41.4485 82.7725 41.4842 82.8353C41.52 82.9071 41.5379 83.0417 41.4485 83.0058C41.1891 82.8981 41.2339 83.0148 41.2339 83.2033C41.2249 83.5085 41.1087 83.7867 40.8672 83.9752C40.7957 84.0291 40.6347 83.9663 40.7599 84.1458C40.8404 84.2625 40.7509 84.3522 40.7062 84.451C40.6526 84.5587 40.6794 84.6574 40.8135 84.7202C40.9745 84.792 41.1265 84.8728 41.1534 85.1062C41.1623 85.187 41.2428 85.3665 41.4485 85.3665C41.6094 85.3665 41.6452 85.4922 41.5558 85.6447C41.5379 85.6806 41.4842 85.8332 41.6184 85.7794C41.842 85.6896 41.9135 85.8781 41.9672 85.9769C42.0566 86.1654 42.1907 86.291 42.3249 86.4257C42.4679 86.5782 42.6379 86.7039 42.6021 86.9552C42.5931 87.045 42.6468 87.1078 42.7452 87.1078C42.8793 87.1078 42.924 87.2066 42.9866 87.3053C43.1208 87.4848 43.2281 87.6823 43.3264 87.8797C43.4069 88.0503 43.55 88.1221 43.7289 88.0413C44.0061 87.9157 44.2922 87.9695 44.5784 87.9875C44.7304 87.9964 44.9093 88.0682 45.0345 88.0234C45.2759 87.9336 45.5263 87.9246 45.741 87.9785C46.1702 88.0862 46.7425 87.8528 47.0019 88.4363C47.0287 88.4901 47.145 88.544 47.2076 88.535C47.3954 88.526 47.5653 88.6158 47.762 88.5888C48.1376 88.526 48.4148 88.8043 48.7189 88.9569C48.6652 89.1723 48.7278 89.1902 48.9067 89.0825C49.0229 89.0107 49.1481 89.0376 49.2733 89.1005C49.8188 89.3697 50.4001 89.4326 50.9993 89.3967C51.4553 89.3787 51.5001 89.3428 51.5001 88.894C51.5001 88.7773 51.5179 88.6607 51.4822 88.5529C51.2944 87.9516 51.0798 87.3502 50.9456 86.7398C50.8651 86.3808 50.6863 86.0666 50.5521 85.7345C50.3912 85.3216 50.2213 84.9087 50.1318 84.4689C50.0335 83.9842 49.9709 83.4816 50.2123 83.0148C50.2212 82.9969 50.257 82.9969 50.2839 82.9879C50.3822 83.0597 50.2749 83.2033 50.3822 83.2751C50.409 83.0507 50.5342 82.8622 50.4359 82.6288C50.3912 82.5211 50.4895 82.3686 50.5968 82.3775C50.8741 82.4045 51.0172 82.1801 51.2139 82.0723C51.4017 81.9736 51.5627 81.8569 51.7862 81.8479C51.8309 81.8479 51.8399 81.821 51.822 81.8031C51.7773 81.7672 51.6431 81.83 51.5984 81.6774ZM54.6211 83.1854C54.0756 83.1764 53.53 83.1943 52.9845 83.1764C52.6 83.1674 52.3049 83.329 52.0277 83.5623C51.8041 83.7598 51.7505 83.9573 51.8578 84.2445C52.2065 85.1152 52.5195 85.9858 52.8593 86.8565C53.1992 87.7272 53.4048 88.6068 53.2975 89.5493C53.2707 89.7467 53.2528 89.9352 53.1455 90.1058C52.7699 90.6802 52.287 91.1021 51.6163 91.2996C50.8294 91.5329 50.0513 91.4611 49.2912 91.2008C48.6205 90.9764 47.9588 90.7341 47.3238 90.402C46.8677 90.1596 46.3938 89.9622 45.9198 89.7647C45.5889 89.63 45.2402 89.5582 44.8825 89.5403C44.7573 89.5313 44.6142 89.5223 44.5337 89.657C44.4532 89.8006 44.5426 89.8993 44.6231 90.007C44.8556 90.2943 45.0792 90.5905 45.3296 90.8598C45.6694 91.2278 45.9914 91.6047 46.2149 92.0625C46.6263 92.8793 47.2165 93.5615 47.8783 94.1808C48.0392 94.3334 48.2091 94.486 48.4685 94.4681C49.1392 94.4052 49.8009 94.3244 50.4627 94.127C51.1513 93.9205 51.7594 93.5705 52.3854 93.2473C53.4943 92.6819 54.5048 91.9817 55.417 91.1111C56.499 90.0788 57.59 89.0556 58.681 88.0323C58.7436 87.9785 58.7973 87.9246 58.8688 87.8797C59.2355 87.6643 59.5395 87.3771 59.8168 87.0629C60.72 86.0397 61.5695 84.9716 62.3654 83.8496C63.3581 82.4493 64.0645 80.9234 64.5296 79.2898C64.7174 78.6346 64.8694 77.9704 64.6637 77.2882C64.1987 75.7353 63.5906 74.2454 62.6248 72.9259C62.4459 72.6835 62.3744 72.6835 62.2402 72.9618C61.8646 73.7158 61.2834 74.2364 60.4964 74.5416C59.8525 74.7929 59.2444 75.116 58.7079 75.5828C58.1892 76.0316 57.9746 76.5881 58.0729 77.2613C58.1534 77.8357 58.2339 78.4102 58.3323 78.9846C58.4664 79.8104 58.4396 80.6182 58.2518 81.4351C58.0282 82.3865 57.1608 83.1495 56.195 83.1854C55.6852 83.2033 55.1487 83.1854 54.6211 83.1854ZM29.9571 98.202C30.6457 98.202 31.3432 98.1392 32.0318 98.22C33.2838 98.3636 34.5805 98.3277 35.7788 98.8303C35.8951 98.8842 36.0381 98.9291 36.1186 98.7855C36.1991 98.6508 36.1186 98.5252 36.0203 98.4444C35.6536 98.1302 35.3048 97.7891 34.9024 97.5199C34.1334 97.0172 33.3375 96.5864 32.4342 96.353C31.4863 96.1107 30.5295 95.9222 29.5547 95.8234C27.6589 95.6349 25.7988 95.8055 23.9476 96.2273C23.2948 96.3799 22.6509 96.5954 22.025 96.8467C21.5957 97.0172 21.2112 97.2955 20.8088 97.5288C20.7283 97.5737 20.6657 97.6635 20.6031 97.7353C20.2811 98.0943 19.9681 98.4623 19.6462 98.8303C19.5747 98.9111 19.5031 99.0099 19.4584 99.1086C19.3869 99.2971 19.4852 99.4766 19.6909 99.4946C19.7982 99.5035 19.9145 99.4766 20.0218 99.4497C21.4705 99.0907 22.9371 98.7944 24.4127 98.5611C25.2086 98.4354 26.0134 98.4354 26.8093 98.3367C27.8645 98.202 28.9108 98.1751 29.9571 98.202ZM32.5058 94.136C32.4879 93.8218 32.318 93.6154 32.157 93.4269C31.5132 92.6729 30.8872 91.9099 30.0734 91.2996C28.6694 90.2404 27.1133 89.6121 25.4053 89.3608C24.055 89.1633 22.7135 89.2979 21.39 89.63C21.2291 89.666 20.9787 89.657 20.9966 89.8993C21.0144 90.1147 21.2559 90.0968 21.4258 90.1237C22.025 90.2314 22.6331 90.3122 23.2322 90.4379C24.2249 90.6443 25.2086 90.8687 26.2012 91.0842C26.4784 91.147 26.7646 91.2188 27.0329 91.3265C28.732 92.0715 30.4043 92.8434 31.9335 93.9116C32.0944 94.0193 32.2465 94.1449 32.5058 94.136ZM42.924 75.5469C42.8793 75.5738 42.8078 75.6007 42.7362 75.6366C42.1728 75.9238 41.5737 76.0944 40.9566 76.1931C40.5274 76.2649 40.0981 76.3367 39.6778 76.4265C39.2933 76.5073 39.2665 76.5881 39.499 76.8843C40.125 77.6741 40.8046 78.4281 41.52 79.1462C41.7346 79.3616 41.7794 79.3616 41.9761 79.1282C42.0476 79.0385 42.1192 78.9487 42.1818 78.859C42.7005 78.0781 43.3264 77.3959 44.0597 76.8035C44.1134 76.7586 44.1581 76.7227 44.2118 76.6778C44.4085 76.4804 44.3996 76.3816 44.1581 76.229C43.8362 76.0226 43.5053 75.8251 43.1834 75.6187C43.1029 75.5917 43.0403 75.5469 42.924 75.5469ZM57.3486 92.1882C57.1876 92.1164 57.1161 92.1972 57.0445 92.251C56.7136 92.5113 56.3917 92.7716 56.0608 93.0319C55.1218 93.7769 54.1203 94.4142 53.0293 94.9079C52.5911 95.1054 52.1618 95.3208 51.7236 95.5272C51.6342 95.5721 51.5358 95.626 51.5627 95.7337C51.5805 95.8503 51.6968 95.8683 51.7952 95.8683C52.1529 95.8863 52.5016 95.9311 52.8504 95.9042C54.0845 95.7875 55.1576 95.3746 55.8999 94.2975C56.2486 93.7949 56.6421 93.3191 56.9998 92.8255C57.1518 92.637 57.2949 92.4485 57.3486 92.1882ZM37.8446 72.9618C37.8446 72.9977 37.8446 73.0246 37.8535 73.0605C38.0413 73.644 38.2202 74.2274 38.4169 74.8108C38.4795 75.0083 38.6494 74.9993 38.8193 74.9634C39.034 74.9096 39.2575 74.8737 39.4721 74.8108C39.9103 74.7031 40.3485 74.6313 40.7957 74.5775C40.9209 74.5595 41.055 74.5146 41.0729 74.3531C41.0908 74.2095 40.9656 74.1646 40.8761 74.1107C40.5542 73.9312 40.268 73.6799 39.9908 73.4375C39.5795 73.0785 39.1502 72.7374 38.6673 72.4771C38.2381 72.2347 37.8535 72.4591 37.8446 72.9618Z" fill="#AE1D74"></path>
<path d="M77.2114 61.5445C78.2935 61.4368 79.3934 61.6792 80.4934 61.8856C81.6023 62.1011 81.8616 63.0704 81.4681 63.986C81.1104 64.8118 80.7438 65.6376 80.243 66.3915C79.1341 68.07 77.7122 69.3805 75.8968 70.2601C75.2261 70.5833 74.5375 70.8256 73.84 71.0859C73.1514 71.3373 72.4271 71.418 71.7027 71.3732C70.9157 71.3283 70.415 70.8436 70.0304 70.2153C69.8247 69.8832 69.7264 69.5062 69.6548 69.1202C69.5833 68.7522 69.5207 68.3932 69.4134 68.0341C69.2792 67.5943 69.0557 67.1994 68.7248 66.8852C68.1793 66.3646 67.9021 65.6914 67.7321 64.9823C67.5086 64.0488 68.1703 62.5139 69.5475 62.5139C69.6906 62.5139 69.8426 62.496 69.9768 62.4601C71.4612 62.0651 72.9815 61.9305 74.4928 61.742C75.3871 61.6164 76.2635 61.4907 77.2114 61.5445ZM72.7579 67.0827C72.8742 67.0647 72.9547 67.0557 73.0352 67.0468C73.6701 67.0019 74.2514 66.7685 74.8595 66.607C75.1903 66.5172 75.4765 66.3646 75.7806 66.203C76.5407 65.7991 76.8895 65.0182 77.4797 64.4527C77.5512 64.3809 77.5691 64.2732 77.4976 64.1924C77.4081 64.0937 77.2919 64.1206 77.1846 64.1565C76.0757 64.4797 74.931 64.6502 73.8042 64.9195C73.1782 65.0631 72.6059 65.3773 71.9799 65.5119C71.9173 65.5209 71.8637 65.5658 71.81 65.6017C71.4702 65.835 71.4076 66.1402 71.649 66.4723C71.9173 66.8673 72.3376 67.0198 72.7579 67.0827Z" fill="#AE1D74"></path>
<path d="M6.3844 54.3099C6.81365 54.274 7.21607 54.4446 7.56483 54.7228C8.56641 55.5307 9.60376 56.2936 10.5249 57.2002C12.1256 58.771 13.7263 60.3238 15.3718 61.8497C16.3913 62.7922 17.4018 63.7346 18.4123 64.6861C19.4675 65.6824 20.487 66.7146 21.5244 67.7289C21.7748 67.9802 22.0073 68.2405 22.2219 68.5278C22.2756 68.6085 22.3471 68.6803 22.3739 68.7701C22.4633 69.0035 22.4812 69.2548 22.3382 69.4702C22.1861 69.6946 21.9357 69.6408 21.7211 69.6049C21.4081 69.56 21.1577 69.3715 20.9163 69.183C19.244 67.8635 17.5628 66.571 15.9531 65.1887C14.7548 64.1655 13.5654 63.1243 12.376 62.101C11.3744 61.2393 10.3728 60.3776 9.3802 59.5159C8.36967 58.6453 7.36809 57.7656 6.35757 56.886C6.08035 56.6437 5.83889 56.3564 5.62427 56.0513C5.45436 55.8089 5.34705 55.5486 5.35599 55.2434C5.35599 54.6331 5.60638 54.3548 6.22343 54.3279C6.2592 54.3099 6.30391 54.3099 6.3844 54.3099Z" fill="#AE1D74"></path>
<path d="M15.9791 47.4433C15.9701 46.9855 16.0685 46.6265 16.4441 46.4919C16.9002 46.3303 17.3652 46.3931 17.7587 46.7342C18.1969 47.1202 18.5635 47.569 18.9033 48.0357C19.6366 49.032 20.361 50.0373 21.1032 51.0337C21.6666 51.7966 22.1674 52.6045 22.695 53.4033C23.2763 54.274 23.8397 55.1536 24.5372 55.9435C25.3599 56.877 25.9859 57.9541 26.6656 58.9953C27.6224 60.4673 28.5614 61.9573 29.5183 63.4294C29.7061 63.7166 29.7866 64.0128 29.7508 64.3449C29.715 64.6322 29.5898 64.7309 29.3037 64.7399C29.0801 64.7489 28.9102 64.6501 28.7313 64.5245C28.2037 64.1564 27.8639 63.6179 27.4525 63.1511C26.3079 61.8766 25.3689 60.4494 24.3047 59.112C23.8755 58.5734 23.4999 57.99 23.017 57.4873C22.6861 57.1463 22.4267 56.7244 22.1495 56.3295C21.8365 55.8717 21.5146 55.4408 21.139 55.0279C20.9959 54.8754 20.8707 54.7048 20.7455 54.5433C19.7439 53.2238 18.7334 51.9043 17.7587 50.5579C17.24 49.8489 16.5872 49.2295 16.2295 48.3948C16.0864 48.0537 15.9701 47.7305 15.9791 47.4433Z" fill="#AE1D74"></path>
<path d="M1.16199 67.5673C1.19776 67.5673 1.30508 67.5583 1.38556 67.5942C2.04732 67.8276 2.73591 67.9892 3.37084 68.3213C4.10414 68.6983 4.81061 69.1022 5.55285 69.4522C6.95686 70.1254 8.38769 70.7358 9.76486 71.4808C10.5429 71.9027 11.3477 72.2707 12.1168 72.7105C12.8411 73.1323 13.637 73.3926 14.3435 73.8504C14.8085 74.1556 15.3451 74.3531 15.8638 74.5775C16.1768 74.7121 16.4719 74.8647 16.767 75.0352C17.5987 75.5199 18.4303 76.0226 19.262 76.4983C19.5213 76.6509 19.727 76.8484 19.8969 77.0817C19.9864 77.1984 20.0489 77.3241 20.0579 77.4767C20.0847 77.7908 19.9685 77.9345 19.6555 77.9434C19.2978 77.9524 18.949 77.8806 18.6092 77.7729C17.3214 77.351 16.0784 76.8394 14.8532 76.2649C13.8338 75.7892 12.8143 75.3135 11.7948 74.8378C10.99 74.4698 10.1852 74.1017 9.38927 73.7158C8.63808 73.3567 7.85112 73.0516 7.08205 72.7284C5.97316 72.2527 4.84638 71.8308 3.80009 71.2205C3.61229 71.1038 3.38872 71.041 3.1741 70.9781C2.89688 70.8884 2.6286 70.7717 2.39609 70.6101C1.96684 70.3139 1.44816 70.1972 1.0368 69.8831C0.831114 69.7305 0.61649 69.5869 0.410808 69.4343C0.214069 69.2817 0.0799289 69.0842 0.0352154 68.8329C-0.125753 67.9981 0.267725 67.5404 1.16199 67.5673Z" fill="#AE1D74"></path>
<path d="M36.3332 59.7044C36.3422 60.2609 36.2527 60.4494 35.9755 60.5391C35.6804 60.6289 35.2959 60.4943 35.0902 60.198C34.9918 60.0544 34.9024 59.8929 34.8487 59.7313C34.2317 57.963 33.5252 56.2307 32.9887 54.4355C32.47 52.7211 31.9245 51.0157 31.3521 49.3193C31.057 48.4306 30.753 47.551 30.5473 46.6355C30.4042 45.9892 30.127 45.3788 29.9303 44.7505C29.5636 43.5836 29.197 42.4078 28.9466 41.205C28.8661 40.837 28.8571 40.469 28.8661 40.101C28.884 39.6971 29.0718 39.3919 29.3937 39.3201C29.7782 39.2303 30.1717 39.2124 30.4579 39.5624C30.6457 39.7958 30.8424 40.0471 30.9497 40.3344C31.3074 41.3038 31.7009 42.2462 31.9513 43.2605C32.2196 44.3376 32.6041 45.3878 32.935 46.447C32.9976 46.6624 33.0602 46.8778 33.1049 47.1022C33.5252 49.0859 34.0886 51.0426 34.6252 52.9994C34.9203 54.0855 35.1975 55.1805 35.582 56.2487C35.7519 56.7334 35.8593 57.245 35.9576 57.7476C36.0471 58.2503 36.0739 58.7799 36.2796 59.2556C36.3422 59.4082 36.3332 59.5967 36.3332 59.7044Z" fill="#AE1D74"></path>
<path d="M42.7367 50.7643C42.7099 49.3102 42.6562 47.8561 42.6562 46.411C42.6562 45.3339 42.6831 44.2478 42.8083 43.1707C42.8262 42.9912 42.853 42.8117 42.9066 42.6501C43.157 41.932 43.5148 41.9141 44.1586 41.9859C44.2928 42.0038 44.3911 42.0936 44.4716 42.2013C44.5789 42.3449 44.6773 42.4975 44.7131 42.6681C44.8293 43.3143 45.0171 43.9606 44.9724 44.6248C44.9545 44.8672 44.9545 45.1095 45.0439 45.3429C45.1065 45.5134 45.0976 45.6929 45.0976 45.8725C45.0797 47.6138 45.035 49.3551 44.9635 51.0964C44.9009 52.5326 44.9098 53.9687 44.9009 55.4049C44.9009 55.746 44.8919 56.0781 44.7757 56.4102C44.7041 56.5987 44.722 56.7961 44.722 56.9846C44.7041 58.2143 44.6862 59.4351 44.6773 60.6648C44.6684 61.6162 44.4806 62.5587 44.5163 63.5191C44.5253 63.6986 44.4537 63.8691 44.3554 64.0217C44.2033 64.2641 43.9708 64.3 43.7204 64.282C43.4879 64.2641 43.3359 64.1294 43.2554 63.914C43.2107 63.7973 43.1839 63.6627 43.1749 63.537C42.9871 61.5623 42.9066 59.5787 42.8709 57.595C42.8083 55.3151 42.7636 53.0442 42.7367 50.7643Z" fill="#AE1D74"></path>
<path d="M80.8315 36.0528C80.3039 36.0438 79.7852 35.963 79.2486 36.0259C78.4706 36.1246 77.7463 36.3311 77.0219 36.6183C75.8773 37.0671 74.831 37.7044 73.7668 38.2968C73.2213 38.602 72.7384 39.0149 72.2376 39.3918C71.9246 39.6252 71.5937 39.7599 71.2092 39.715C70.8962 39.688 70.7442 39.5444 70.7084 39.2303C70.6637 38.7725 70.7263 38.3417 71.0124 37.9467C71.6205 37.112 72.3896 36.4747 73.257 35.9182C74.4733 35.1462 75.7878 34.6885 77.2187 34.482C77.952 34.3743 78.6763 34.2127 79.4186 34.1948C79.9909 34.1768 80.5364 34.3294 81.0551 34.5628C81.4307 34.7333 81.6721 35.0295 81.7526 35.4335C81.8331 35.7925 81.69 35.99 81.3234 36.0438C81.1534 36.0708 80.9925 36.0528 80.8315 36.0528Z" fill="#AE1D74"></path>
<path d="M76.1913 47.4342C76.0124 47.4252 75.7531 47.4342 75.5027 47.3983C75.0377 47.3355 74.7426 47.0482 74.68 46.6354C74.5995 46.1058 74.7604 45.8185 75.2344 45.5762C75.5295 45.4326 75.8514 45.3967 76.1644 45.3159C77.6221 44.9748 79.0529 44.5529 80.4838 44.1401C80.6716 44.0862 80.8594 44.0413 81.0472 44.0144C81.539 43.9426 82.0308 43.8618 82.5048 43.6913C82.7641 43.5925 83.0414 43.5836 83.3186 43.5925C83.8194 43.6015 83.9982 43.79 83.9714 44.2747C83.9267 45.0287 83.5422 45.6121 82.943 46.0519C82.4869 46.384 81.9504 46.5007 81.4138 46.5995C80.4033 46.77 79.3838 46.9585 78.3733 47.1201C77.7831 47.2098 77.2197 47.4252 76.6205 47.4252C76.4953 47.4073 76.3791 47.4252 76.1913 47.4342Z" fill="#AE1D74"></path>
<path d="M6.03539 77.2433C6.64349 77.1985 7.21582 77.4139 7.78816 77.5485C9.24581 77.8896 10.6856 78.2935 12.1254 78.6885C12.653 78.8321 13.1627 79.0296 13.6724 79.227C14.1464 79.4065 14.3253 79.6489 14.2627 79.99C14.209 80.3221 13.9765 80.4477 13.4221 80.4388C13.279 80.4388 13.1269 80.4298 12.9928 80.4029C10.936 80.0349 8.87022 79.6938 6.83129 79.236C6.43781 79.1462 6.03539 79.1373 5.64191 79.0206C5.10535 78.85 4.8639 78.5269 4.88178 77.9884C4.89967 77.5396 5.10535 77.3062 5.55248 77.2523C5.71345 77.2254 5.87442 77.2433 6.03539 77.2433Z" fill="#AE1D74"></path>
<path d="M17.0883 58.1964C17.0883 57.613 17.285 57.4245 17.7769 57.3976C18.2061 57.3796 18.5459 57.5412 18.8321 57.8643C19.6459 58.7709 20.4597 59.6864 21.3003 60.5751C22.1588 61.4727 22.8742 62.4869 23.6969 63.4114C23.9115 63.6448 24.001 63.941 24.0457 64.2462C24.0993 64.6142 23.9741 64.7399 23.5807 64.713C23.223 64.686 22.9457 64.4975 22.6864 64.2731C22.123 63.7705 21.5507 63.2768 21.0052 62.7472C19.8605 61.6163 18.7337 60.4673 17.6427 59.2915C17.3566 58.9684 17.0436 58.6363 17.0883 58.1964Z" fill="#AE1D74"></path>
<path d="M30.4494 56.8591C30.4494 56.895 30.4494 56.9219 30.4494 56.9578C30.4404 57.1553 30.4404 57.3618 30.2258 57.4515C29.9933 57.5592 29.7787 57.4874 29.5998 57.3259C29.2958 57.0566 29.0364 56.7424 28.8486 56.3924C28.1153 55.0101 27.2121 53.7355 26.4341 52.3801C26.1301 51.8506 25.8439 51.312 25.5577 50.7735C25.3789 50.4413 25.3252 50.0733 25.3431 49.6963C25.3878 48.9962 26.0138 48.6641 26.6219 49.0321C26.8455 49.1668 27.0243 49.3553 27.1406 49.5886C27.6503 50.6478 28.2048 51.689 28.6519 52.7751C28.947 53.4752 29.2689 54.1574 29.6177 54.8306C29.877 55.3332 30.047 55.8807 30.351 56.3565C30.4494 56.4911 30.4494 56.6796 30.4494 56.8591Z" fill="#AE1D74"></path>
<path d="M9.95265 65.9247C10.2925 65.9068 10.5697 66.0414 10.8559 66.203C12.1436 66.9569 13.3777 67.8007 14.6744 68.5457C15.2288 68.8688 15.6939 69.3266 16.2304 69.6856C16.5971 69.928 16.9101 70.2242 17.2052 70.5473C17.2767 70.6281 17.3572 70.7178 17.4019 70.8166C17.545 71.1577 17.393 71.391 17.0263 71.409C16.7849 71.418 16.5524 71.3551 16.3288 71.2474C13.9858 70.1972 11.8038 68.8778 9.62177 67.5404C9.15675 67.2531 9.01367 66.8761 9.13886 66.3376C9.19252 66.1222 9.31772 65.9965 9.5234 65.9516C9.65754 65.9337 9.80956 65.9337 9.95265 65.9247Z" fill="#AE1D74"></path>
<path d="M39.83 56.5179C39.83 56.9846 39.83 57.4514 39.83 57.9181C39.83 58.1156 39.8121 58.3041 39.7137 58.4836C39.5527 58.7798 39.2219 58.8157 38.9983 58.5644C38.891 58.4387 38.8284 58.2861 38.8105 58.1246C38.7211 57.4873 38.5154 56.8679 38.4081 56.2306C38.2024 55.0728 38.0235 53.9059 37.8626 52.739C37.7731 52.0838 37.639 51.4375 37.6211 50.7733C37.6122 50.5758 37.6122 50.3873 37.6301 50.1899C37.6658 49.6872 37.943 49.3641 38.3634 49.3102C38.9089 49.2474 39.2308 49.4359 39.4007 49.9475C39.508 50.2527 39.5617 50.5758 39.5796 50.899C39.6779 52.4967 39.7674 54.0854 39.8568 55.6831C39.8747 55.9524 39.8568 56.2306 39.8568 56.5089C39.8568 56.5179 39.8478 56.5179 39.83 56.5179Z" fill="#AE1D74"></path>
<path d="M87.1813 21.6376C88.2991 21.6286 89.0771 22.0685 89.8194 22.6968C91.3754 24.0342 90.9998 26.35 89.6853 27.5348C88.6211 28.4952 87.3602 28.8812 85.9383 28.6119C85.3123 28.4952 84.8562 28.1182 84.579 27.5527C84.4538 27.2924 84.3286 27.0321 84.2034 26.7718C83.9888 26.332 83.9172 25.8473 83.9619 25.3536C83.9888 25.0036 84.1497 24.8061 84.427 24.7523C84.6952 24.6984 84.9635 24.8151 85.1066 25.1023C85.3391 25.5601 85.7058 25.9281 85.8578 26.4397C85.974 26.8167 86.3586 26.9154 86.7252 26.9424C87.5122 27.0052 88.4243 26.3948 88.7999 25.6678C88.8446 25.578 88.8715 25.4883 88.8446 25.3895C88.6568 24.6535 88.2723 24.0432 87.6016 23.6841C87.1366 23.4328 86.6269 23.5405 86.1618 23.7649C85.9472 23.8726 85.7415 23.9983 85.4911 24.0252C84.8562 24.097 84.5164 23.6482 84.7578 23.0468C84.8294 22.8673 84.9635 22.7237 85.1155 22.598C85.518 22.2749 85.9562 22.0146 86.4212 21.7723C86.6984 21.6197 87.0024 21.6376 87.1813 21.6376Z" fill="#AE1D74"></path>
<path d="M87.576 19.5372C87.576 19.3397 87.5671 19.1512 87.576 18.9537C87.5939 18.6127 87.5044 18.3164 87.2898 18.0561C87.0484 17.7689 86.9053 17.4637 87.0841 17.0778C87.1646 16.9072 87.0573 16.7726 86.9411 16.6469C86.7086 16.4046 86.4671 16.1622 86.2614 15.9019C85.9663 15.5339 85.9842 15.1928 86.2793 14.9146C86.5476 14.6633 86.9232 14.6453 87.2362 14.9236C88.041 15.6326 88.7654 16.4046 88.9532 17.5266C88.9979 17.7958 89.0963 18.0561 89.1946 18.3075C89.4271 18.9178 89.3914 19.5372 89.2393 20.1565C89.1588 20.4617 88.9889 20.704 88.7654 20.9195C88.2825 21.3862 87.6744 21.108 87.5402 20.4796C87.4955 20.2552 87.5313 20.0308 87.5492 19.8064C87.5581 19.7077 87.5671 19.618 87.576 19.5192C87.5671 19.5372 87.576 19.5372 87.576 19.5372Z" fill="#AE1D74"></path>
<path d="M81.8078 16.6917C83.5696 16.7276 85.5727 17.9932 86.306 19.9948C86.3776 20.1923 86.4223 20.3987 86.3776 20.6142C86.315 20.9104 86.1361 21.1078 85.8589 21.1976C85.5995 21.2784 85.3849 21.1707 85.2061 20.9912C85.1345 20.9283 85.063 20.8565 85.0183 20.7757C84.5443 19.9859 83.82 19.4383 83.194 18.7921C83.0867 18.6843 82.9615 18.6125 82.8273 18.5677C82.3444 18.4151 81.9152 18.1099 81.3786 18.065C80.9851 18.0291 80.7526 17.697 80.7705 17.3649C80.7884 17.0238 81.0835 16.7366 81.4859 16.7007C81.5574 16.6827 81.6379 16.6917 81.8078 16.6917Z" fill="#AE1D74"></path>
<path d="M94.22 17.6523C94.3988 17.6523 94.5777 17.6523 94.7476 17.7152C95.0516 17.8229 95.2752 18.1191 95.2752 18.3973C95.2752 18.6935 95.0338 19.0077 94.6939 19.0885C94.524 19.1334 94.3452 19.1334 94.1663 19.1423C93.9785 19.1513 93.7818 19.1513 93.594 19.2142C93.3794 19.2949 93.1916 19.3937 93.1379 19.654C93.0664 19.9681 92.8339 20.1656 92.5298 20.2015C92.0022 20.2733 91.6713 20.6054 91.3762 21.0004C91.2152 21.2158 91.0811 21.4581 90.9112 21.6825C90.634 22.0416 90.2941 22.1582 89.999 22.0146C89.6682 21.8531 89.5161 21.494 89.5877 21.0722C89.6324 20.8298 89.7576 20.6234 89.8917 20.4169C90.5803 19.3937 91.5372 18.6576 92.5924 18.0563C93.0843 17.769 93.6476 17.6793 94.22 17.6523Z" fill="#AE1D74"></path>
<path d="M97.7609 28.531C97.7609 28.8452 97.6178 29.0426 97.3764 29.1862C97.1618 29.3119 96.9472 29.294 96.7415 29.1503C96.6073 29.0606 96.4821 28.9618 96.3748 28.8362C95.722 28.0822 94.8635 27.7681 93.8977 27.7052C93.5936 27.6873 93.2896 27.7052 92.9855 27.7052C92.7262 27.7052 92.4847 27.768 92.2522 27.8937C91.8319 28.1271 91.5011 28.0553 91.2775 27.7232C91.0629 27.418 91.1255 27.032 91.4563 26.7268C91.6441 26.5473 91.8588 26.3947 92.127 26.3588C93.3969 26.1973 94.6578 26.1524 95.874 26.6909C96.4195 26.9423 96.9203 27.2654 97.3317 27.7052C97.5463 27.9565 97.7252 28.2168 97.7609 28.531Z" fill="#AE1D74"></path>
<path d="M95.9283 24.1597C95.7226 24.1687 95.499 24.079 95.2755 23.9712C94.2739 23.4596 93.317 23.6212 92.387 24.1597C91.9577 24.4111 91.6179 24.3572 91.3585 24.0251C91.1171 23.702 91.1618 23.316 91.4837 22.9749C91.6268 22.8223 91.7789 22.6787 91.9756 22.589C93.1829 22.0145 94.408 21.9068 95.66 22.4453C95.9372 22.562 96.2323 22.6608 96.4648 22.8762C96.751 23.1544 96.8494 23.4058 96.7421 23.684C96.6347 23.9712 96.3218 24.1597 95.9283 24.1597Z" fill="#AE1D74"></path>
<path d="M51.5012 74.748C51.4833 74.7031 51.3492 74.739 51.3402 74.5954C51.7784 74.4159 52.2166 74.1825 52.7263 74.4428C52.8426 74.5057 53.0304 74.5236 52.8694 74.748C52.7979 74.8557 52.9499 74.8557 52.9946 74.8737C53.1914 74.9634 53.3792 75.0532 53.3434 75.3225C53.3434 75.3404 53.3255 75.4392 53.4149 75.3853C53.5401 75.3045 53.5938 75.3674 53.5938 75.484C53.6027 75.7982 53.5938 76.1124 53.5938 76.4265C53.3434 76.4714 53.4775 76.247 53.3613 76.2201C53.3076 76.3457 53.3344 76.4893 53.3523 76.624C53.3613 76.7137 53.4686 76.8035 53.4507 76.8843C53.4149 77.0548 53.2629 76.8394 53.254 76.9022C53.2271 77.1177 53.0125 77.2613 53.0751 77.5216C53.1556 77.8357 52.7979 78.2845 52.4491 78.3743C52.315 78.4102 52.2792 78.4461 52.4044 78.5448C52.5028 78.6166 52.4312 78.6795 52.3776 78.7423C52.002 79.1193 51.6264 79.4963 51.2508 79.8733C51.224 79.9002 51.1882 79.9361 51.1793 79.9361C50.8573 79.7476 50.7679 80.1695 50.5264 80.1874C50.4102 80.1964 50.4012 80.2772 50.4191 80.358C50.4549 80.5016 50.3029 80.5375 50.2582 80.6272C50.1508 80.8337 49.8557 80.5285 49.8289 80.7708C49.811 80.9863 49.6948 81.103 49.5606 81.1927C49.033 81.5517 48.5412 81.9557 48.0225 82.3147C47.5217 82.6648 46.9672 82.8174 46.4039 82.9789C46.3144 83.0058 46.1982 83.0148 46.1177 82.9699C45.921 82.8533 45.7063 82.9071 45.5006 82.8622C45.4649 82.6648 45.6258 82.7186 45.7063 82.6827C45.7332 82.6468 45.7242 82.6199 45.6795 82.6289C45.3486 82.6468 45.134 82.3955 44.8836 82.2339C44.8031 82.1801 44.7405 82.0544 44.7226 81.9467C44.66 81.5877 44.7316 81.2107 44.5974 80.8516C44.5617 80.7619 44.5796 80.4836 44.8747 80.5465C44.9641 80.5644 45.0177 80.4387 45.0625 80.349C45.1429 80.1874 45.0714 79.9451 45.3218 79.8912C45.3397 79.8912 45.3576 79.8374 45.3486 79.8104C45.3129 79.1462 45.8494 78.832 46.225 78.4551C46.377 78.3025 46.5469 78.1499 46.7169 78.0063C47.1998 77.5754 47.6737 77.1266 48.246 76.8125C48.3534 76.7496 48.4517 76.7855 48.4517 76.606C48.4517 76.4355 48.6216 76.3547 48.7647 76.2829C49.1761 76.0854 49.498 75.7533 49.8736 75.493C50.2045 75.2686 50.5533 75.0711 50.911 74.9006C51.1256 74.766 51.3492 74.9904 51.5012 74.748ZM51.2508 77.001C50.8126 77.1895 50.5086 77.4857 50.0704 77.4498C49.9899 77.4408 49.9004 77.5395 49.8289 77.5934C48.8094 78.464 47.8168 79.3527 47.0298 80.4567C46.9672 80.5465 46.842 80.6542 46.9672 80.7888C47.8883 80.4926 50.8305 78.1319 51.2508 77.001Z" fill="#AE1D74"></path>
<path d="M56.4375 78.3564C56.4375 77.6383 56.4375 76.9202 56.4375 76.2201C56.5359 76.1752 56.5716 76.2291 56.5895 76.2829C56.67 76.6061 56.5985 78.114 56.4375 78.3564Z" fill="#AE1D74"></path>
<path d="M52.8242 81.4351C53.5307 81.4351 54.2372 81.4351 54.9436 81.4351C54.9436 81.4529 54.9436 81.4796 54.9436 81.4975C54.2461 81.4975 53.5486 81.4975 52.851 81.4975C52.8421 81.4707 52.8332 81.4529 52.8242 81.4351Z" fill="#AE1D74"></path>
<path d="M44.5968 81.2107C44.6684 81.3812 44.6326 81.5518 44.6147 81.7492C44.418 81.471 44.418 81.462 44.5968 81.2107Z" fill="#AE1D74"></path>
<path d="M47.3338 88.3464C47.3875 88.3375 47.4233 88.3553 47.4322 88.4088C47.4501 88.4712 47.3964 88.4802 47.3517 88.4802C47.3249 88.4802 47.2802 88.4623 47.2712 88.4445C47.2623 88.3999 47.2891 88.3643 47.3338 88.3464Z" fill="#AE1D74"></path>
</svg>