<svg xmlns="http://www.w3.org/2000/svg" width="85" height="120" viewBox="0 0 85 120" fill="none">
<path d="M83.9307 25.6687C83.7568 25.9622 83.5671 25.986 83.2115 25.8987C81.9864 25.5893 80.7534 25.2799 79.473 25.2006C78.24 25.1212 77.0149 24.9864 75.7819 25.0102C74.3671 25.0419 72.9681 25.2085 71.6007 25.5655C71.2451 25.6607 70.8894 25.8115 70.5495 25.9622C70.186 26.1209 69.9093 26.105 69.5774 25.8035C68.9767 25.2641 68.787 24.5262 68.455 23.8439C67.8069 22.5111 66.8822 21.3924 65.6413 20.5673C65.5069 20.48 65.3488 20.3293 65.1591 20.5197C64.9694 20.7022 65.0485 20.8609 65.1433 21.0513C65.2303 21.2258 65.3488 21.3766 65.4753 21.5273C65.9337 22.0747 66.155 22.7094 66.2894 23.4076C66.3842 23.8836 66.4791 24.3596 66.4633 24.8515C66.4475 25.3672 65.9021 25.8115 65.4121 25.6766C65.2145 25.6211 65.0011 25.5655 64.8351 25.4545C63.8629 24.788 62.7959 24.788 61.6815 24.9229C60.9227 25.0181 60.1639 24.9784 59.4052 24.8594C58.1722 24.669 56.9313 24.6056 55.6904 24.915C54.7814 25.145 53.833 25.2006 52.8924 25.2799C52.1969 25.3355 51.5092 25.4941 50.8295 25.6687C50.3079 25.8035 49.7704 25.8749 49.2567 26.0336C49.1539 26.0654 49.0433 26.0654 48.9958 26.1764C49.0591 26.2954 49.1539 26.2716 49.225 26.2637C50.2051 26.1923 51.1615 26.343 52.1178 26.5334C52.7422 26.6604 53.3429 26.8746 53.9594 27.0412C55.9117 27.5569 57.8244 28.2154 59.6897 28.977C60.9148 29.4768 62.1399 30.0163 63.2464 30.7621C63.8234 31.1508 64.266 31.6903 64.7402 32.1901C65.3804 32.8724 66.0048 33.5547 66.653 34.2291C67.5461 35.1573 68.2258 36.2125 68.7317 37.4026C69.111 38.2991 69.7592 39.0528 70.2018 39.9096C70.8499 41.1552 71.4427 42.4325 71.8616 43.7733C72.0908 44.5111 72.1856 45.2966 72.1698 46.0741C72.1619 46.8198 72.3911 47.5259 72.5334 48.24C72.6836 49.0016 72.8891 49.7474 72.897 50.5328C72.897 51.5642 72.9918 52.5797 73.1104 53.6031C73.1736 54.1188 73.0788 54.7059 72.8812 55.1898C72.2805 56.6814 72.1224 58.284 71.743 59.8231C71.4506 61.029 70.9684 62.1635 70.4389 63.2743C70.1227 63.9486 69.9805 64.6627 69.7671 65.3608C69.6801 65.6464 69.4825 65.8606 69.3719 66.1304C69.3165 66.2732 69.1427 66.2732 69.0004 66.2335C68.8423 66.1859 68.8502 66.0431 68.866 65.9241C68.8976 65.702 68.9609 65.4877 68.9767 65.2656C69.0399 64.147 69.0241 63.0442 68.7633 61.9255C68.6052 61.2512 68.6842 60.5133 68.6447 59.8072C68.5894 58.8393 68.2337 57.9746 67.8385 57.1177C67.309 55.9674 66.811 54.8011 66.242 53.6745C65.2224 51.6514 63.8234 49.9219 62.1004 48.4542C61.7605 48.1686 61.7368 47.9623 61.9186 47.5577C62.0925 47.153 62.211 46.7246 62.3454 46.3041C62.5667 45.606 62.788 44.9078 63.0014 44.2017C63.033 44.0906 63.1041 43.9637 63.0251 43.8288C62.8512 43.8447 62.7801 43.9875 62.6931 44.1065C62.3296 44.6143 61.9186 45.0824 61.4918 45.5266C61.1835 45.844 60.7962 46.0423 60.3852 46.1693C59.7845 46.3517 59.4368 45.8995 59.0653 45.5584C58.8045 45.3204 58.7017 44.9633 58.6306 44.6301C58.3935 43.575 57.8323 42.7102 57.0656 41.9803C55.8959 40.8616 54.9079 39.5843 53.8172 38.3943C53.6907 38.2515 53.5168 38.1404 53.3508 38.0452C52.9873 37.8389 52.8529 37.5612 52.9794 37.1408C53.0979 36.7361 53.2718 36.3633 53.4852 35.9983C53.746 35.562 53.6749 35.1573 53.3429 34.8876C53.177 34.7607 53.0426 34.7527 52.9319 34.9431C52.8766 35.0383 52.7976 35.1256 52.758 35.2287C52.4577 36.0142 51.8412 36.4981 51.1536 36.9186C50.7031 37.1963 50.2921 37.0694 50.1103 36.5775C49.7783 35.681 49.478 34.7765 49.1539 33.88C49.0986 33.7213 49.0828 33.4913 48.8378 33.4992C48.6244 33.5071 48.6165 33.7055 48.5769 33.8721C48.4505 34.4354 48.2055 34.9511 47.8498 35.4033C47.747 35.5302 47.7154 35.6572 47.8103 35.7841C48.0079 36.038 48.079 36.3395 48.1264 36.633C48.2687 37.5533 48.6481 38.3943 48.9958 39.2432C49.5254 40.5284 49.636 41.901 49.9127 43.2338C50.2288 44.7809 50.5292 46.3279 50.8374 47.875C51.201 49.6998 51.3037 51.5562 51.5092 53.4048C51.8096 56.1022 51.944 58.8076 52.0625 61.5209C52.0941 62.2032 52.347 62.7189 52.8529 63.0997C53.177 63.3377 53.1453 63.4488 52.8529 63.6789C52.4419 64.0121 52.2838 64.496 52.2443 65.0117C52.0783 67.0904 52.1574 69.1769 52.2759 71.2555C52.3787 73.0882 52.3154 74.913 52.2206 76.7456C52.102 79.1019 51.9123 81.4582 51.944 83.8304C51.9519 84.1715 52.0704 84.2985 52.3708 84.4175C54.0385 85.0919 55.7457 85.671 57.5082 86.0122C59.8715 86.4644 62.2505 86.385 64.6217 86.0439C65.0485 85.9804 65.4674 85.8456 65.8389 85.6155C66.1629 85.4171 66.4554 85.1791 66.5423 84.7269C66.2103 84.6714 65.9021 84.7507 65.6018 84.8221C63.9894 85.1712 62.3533 85.3378 60.7172 85.433C60.6065 85.4409 60.488 85.4568 60.3852 85.4409C60.1797 85.4013 59.99 85.2981 59.9821 85.076C59.9742 84.8459 60.1639 84.7983 60.3615 84.7824C61.0729 84.7348 61.7763 84.6793 62.4877 84.6396C63.6574 84.5762 64.7877 84.2588 65.9495 84.0922C66.566 84.0049 67.1588 83.759 67.6726 83.3702C67.9413 83.164 68.1231 82.926 67.9966 82.5451C67.8701 82.1643 67.6014 82.0374 67.2299 82.0374C66.8901 82.0374 66.566 82.085 66.242 82.1881C65.1591 82.5451 64.0605 82.8625 62.9382 83.0846C62.5667 83.156 62.2268 83.394 61.8791 83.5607C61.223 83.8621 60.5038 83.9018 59.8004 83.9653C59.5869 83.9811 59.3419 83.9415 59.3261 83.6717C59.3103 83.4178 59.5316 83.394 59.7371 83.3623C60.8041 83.1878 61.8237 82.8308 62.7327 82.2437C63.6337 81.6645 64.3529 80.9187 64.5584 79.7366C64.2976 79.8318 64.0763 79.9191 63.8471 79.9984C63.7523 80.0302 63.6653 80.0778 63.5705 80.0936C62.6852 80.2206 61.9186 80.5617 61.2309 81.1567C60.8753 81.4662 60.3773 81.5296 59.8873 81.5455C58.8756 81.5931 58.2512 80.7442 58.101 80.0302C57.9113 79.1257 58.2749 78.4434 59.168 78.0547C59.4131 77.9436 59.6502 77.8405 59.8241 77.6183C60.0296 77.3486 60.0533 77.055 59.9031 76.7536C59.7608 76.4679 59.5316 76.3093 59.1997 76.3172C59.089 76.3172 58.9704 76.3093 58.8677 76.3569C57.3818 77.0074 56.1567 77.8325 56.1883 79.6097C56.1962 80.1571 56.0856 80.6649 55.7615 81.1171C55.3979 81.6248 54.9316 81.847 54.3072 81.6804C53.8883 81.5693 53.4773 81.4503 53.0584 81.3392C52.8845 81.2916 52.758 81.1964 52.679 81.0377C52.5684 80.8077 52.6948 80.5935 52.9556 80.6411C53.2244 80.6887 53.5089 80.6887 53.7618 80.8235C53.9594 80.9267 54.1807 80.9505 54.402 80.9743C55.1766 81.0536 55.3663 80.6966 55.5323 79.9905C55.6192 79.6097 55.556 79.213 55.5718 78.8163C55.5955 78.2768 55.6667 77.7532 56.0777 77.3486C56.1962 77.2296 56.1567 77.1423 56.0935 77.0233C55.0264 74.9685 55.1924 72.8978 56.046 70.8271C56.3148 70.1845 56.8127 69.7164 57.3976 69.3276C58.1959 68.7882 58.9863 68.2407 59.9347 68.0027C61.2072 67.6854 62.4639 67.6774 63.7127 68.1297C63.9499 68.2169 64.1395 68.328 64.0605 68.6454C63.9973 68.8913 64.1158 69.042 64.3608 69.1055C64.6375 69.1769 64.7165 69.3197 64.6454 69.6371C64.5742 69.9703 64.432 70.4225 65.0643 70.4463C65.2066 70.4542 65.2619 70.6129 65.2777 70.7636C65.3251 71.2317 65.4753 71.3349 65.8942 71.2C66.1076 71.1286 66.242 71.1921 66.321 71.4063C66.4396 71.7395 66.6213 71.7553 66.8901 71.5411C67.2378 71.2555 67.475 71.3031 67.7042 71.6839C67.9255 72.0489 68.0835 72.4218 68.0598 72.8661C68.0361 73.469 68.1073 74.0799 68.0361 74.667C67.8227 76.3331 67.143 77.7691 65.8231 78.8481C65.578 79.0464 65.4042 79.2527 65.42 79.5621C65.4595 80.5855 64.9695 81.3472 64.2581 82.0136C64.2265 82.0374 64.2107 82.0771 64.1316 82.204C64.843 81.9898 65.4832 81.8073 66.1155 81.609C66.5186 81.482 66.9217 81.3789 67.3485 81.4186C68.0361 81.482 68.4946 81.8787 68.6526 82.5293C68.8028 83.156 68.5815 83.8145 68.0282 84.1319C67.6488 84.3461 67.4512 84.5841 67.309 85.0284C67.0086 85.9487 66.2183 86.4723 65.333 86.6707C63.4914 87.0753 61.6182 87.1943 59.7292 86.988C59.3894 86.9483 59.0416 86.9563 58.6938 86.9563C57.1921 86.9642 55.7931 86.4564 54.3783 86.0439C53.6749 85.8456 53.0347 85.433 52.3629 85.1395C51.9281 84.949 51.9282 84.957 51.9202 85.4409C51.8965 86.9483 51.857 88.4557 51.857 89.9631C51.857 90.812 51.9598 91.6609 51.9598 92.5098C51.9598 93.2001 51.9202 93.9062 51.8333 94.5884C51.7701 95.0962 51.7306 95.6119 51.7306 96.1197C51.7147 101.879 51.7147 107.639 51.7306 113.407C51.7306 114.224 51.8728 115.034 51.9202 115.851C51.9519 116.398 51.7938 116.93 51.6515 117.445C51.4381 118.183 51.1299 118.873 50.5213 119.405C50.1972 119.691 49.802 119.81 49.4384 120C48.9958 120 48.5453 120 48.1027 120C47.423 119.786 46.7037 119.706 46.0398 119.421C44.8305 118.897 43.9927 118.048 43.7161 116.747C43.6133 116.271 43.6212 115.755 43.7714 115.256C43.9453 114.653 44.0718 114.034 44.0797 113.415C44.1192 110.551 44.135 107.687 44.1508 104.823C44.1666 102.951 44.135 101.078 44.214 99.2058C44.2535 98.1745 44.1982 97.1352 44.2694 96.1117C44.3958 94.3425 44.3721 92.5733 44.4432 90.812C44.4907 89.6854 44.1824 88.5747 44.2694 87.4402C44.3879 85.9249 44.4037 84.4096 44.459 82.8942C44.459 82.8228 44.459 82.7435 44.4986 82.688C44.9491 81.9898 44.9017 81.1885 44.9412 80.411C45.1704 75.0875 45.2178 69.7561 45.0676 64.4326C45.036 63.1632 45.0439 61.8938 44.9491 60.6244C44.8779 59.6486 45.036 58.6489 45.0755 57.6652C45.1151 56.6576 45.0993 55.65 44.9886 54.6504C44.8226 53.1192 44.8226 51.58 44.6883 50.0488C44.625 49.3348 44.4116 48.6446 44.3958 47.9147C44.3721 46.8912 44.2377 45.8678 44.0876 44.8523C43.9848 44.17 43.803 43.4956 43.5817 42.8371C43.2023 41.7185 43.0759 40.5998 43.3604 39.4495C43.3999 39.2828 43.3841 39.1321 43.313 39.0052C43.2419 38.8624 43.1786 38.664 42.9968 38.6481C42.815 38.6323 42.7676 38.8227 42.6807 38.9496C41.7006 40.2984 40.4202 40.9489 38.7288 40.7268C38.0253 40.6316 37.3535 40.4174 36.6975 40.1714C35.4803 39.7192 34.7215 38.069 35.0772 36.9662C35.1879 36.6251 35.0851 36.4981 34.769 36.3871C34.2394 36.2046 33.7889 35.8634 33.4253 35.435C33.2435 35.2129 33.125 35.2684 32.9827 35.4667C32.2476 36.5061 31.6865 37.6247 31.481 38.902C31.4019 39.378 31.2281 39.8382 31.1727 40.3222C31.1411 40.6157 31.1964 40.9013 31.2043 41.1869C31.2201 41.6312 31.0067 41.8851 30.6432 42.0596C30.0267 42.3532 29.4418 42.258 28.8569 41.9724C28.5961 41.8454 28.3432 41.6947 28.0823 41.5677C27.8215 41.4408 27.5686 41.3456 27.3552 41.655C26.96 42.2262 26.9363 42.4484 27.2445 42.7578C27.4816 42.9958 27.7899 43.1465 28.0744 43.3131C28.4775 43.5512 28.8016 43.8685 29.094 44.2255C29.3074 44.4873 29.3311 44.7729 29.1177 45.0982C28.2009 46.4866 27.5054 47.9781 27.0153 49.5649C26.8889 49.9774 26.7545 50.382 26.5964 50.7867C26.2565 51.6514 26.0985 52.5479 26.0431 53.4603C25.9799 54.4441 25.2132 55.047 24.2648 54.8487C23.3479 54.6583 22.4469 54.4441 21.7751 53.7221C21.6012 53.5396 21.4352 53.3492 21.293 53.1509C21.206 53.0319 21.0795 52.9764 20.961 52.905C20.8424 52.8415 20.7397 52.9208 20.6527 52.9684C20.5658 53.0081 20.5895 53.1192 20.629 53.1906C21.0321 53.976 21.2297 54.8566 21.7198 55.6024C21.9332 55.9277 22.2019 56.1736 22.5259 56.372C23.1899 56.7766 23.2689 57.1653 22.8342 57.7921C22.4311 58.3633 22.2098 59.0218 21.9253 59.6565C21.5696 60.4578 21.1428 61.2194 20.7634 62.0049C20.3208 62.9014 20.2417 63.8931 20.0916 64.861C20.0283 65.2577 19.9019 65.6385 19.8703 66.0431C19.8149 66.7809 19.894 67.5108 20.0521 68.2249C20.1627 68.7485 20.0046 69.2245 19.7991 69.6767C19.6332 70.0337 19.3328 70.0179 19.1115 69.6847C18.8428 69.2642 18.8823 68.7723 18.8033 68.3201C18.6373 67.2966 18.4476 66.2732 18.1235 65.2973C17.9654 64.8134 17.7758 64.3374 17.594 63.8614C17.2383 62.9014 17.0249 61.9017 16.7957 60.9021C16.4953 59.5534 16.1713 58.2046 15.9184 56.8401C15.784 56.1022 15.7682 55.3485 15.7603 54.6028C15.7524 53.7618 15.618 52.9367 15.452 52.1275C15.2149 50.9453 15.3493 49.787 15.4283 48.6128C15.5232 47.2086 15.7998 45.844 16.1001 44.4715C16.3531 43.329 16.8115 42.25 17.2067 41.1552C17.4675 40.4332 17.7204 39.7192 18.005 39.0131C18.3132 38.2515 18.7795 37.5771 19.1905 36.871C20.1153 35.2922 21.2692 33.8959 22.5101 32.563C23.6799 31.3016 25.1026 30.413 26.5964 29.5879C27.6792 28.9929 28.7225 28.3344 29.8765 27.8742C30.1531 27.7632 30.4772 27.7473 30.7459 27.5093C30.6432 27.422 30.5325 27.3903 30.414 27.3903C29.4655 27.4061 28.5091 27.2237 27.5528 27.5013C27.0232 27.6521 26.5648 27.3427 26.2407 26.946C25.9957 26.6445 26.1301 26.2716 26.2565 25.9146C26.4937 25.2561 26.9758 24.7722 27.3789 24.2327C27.4658 24.1137 27.5449 23.9947 27.6081 23.8439C26.5569 24.3993 25.3713 24.7484 24.7785 25.9384C24.4466 26.5969 23.8143 26.6921 23.1741 26.6683C22.2256 26.6366 21.3246 26.3748 20.4631 25.9543C19.6411 25.5576 18.7637 25.4069 17.8469 25.4069C17.1514 25.4069 16.519 25.1768 15.9421 24.788C15.4916 24.4786 15.4362 23.8757 15.6654 23.114C15.8867 22.3921 16.3847 21.8367 16.7245 21.1861C16.8273 20.9878 16.938 20.7974 17.0407 20.607C17.0802 20.5277 17.096 20.4404 17.0249 20.3769C16.9538 20.3134 16.8984 20.3769 16.8431 20.4007C15.452 20.9799 14.4403 21.8922 14.0847 23.4314C13.895 24.2406 12.9386 24.8436 12.2194 24.7166C11.9427 24.669 11.753 24.4945 11.6266 24.2882C11.018 23.3441 10.0853 22.8443 9.12108 22.3683C8.7496 22.1858 8.37812 21.9954 8.00664 21.805C7.32691 21.4638 6.58395 21.4083 5.84889 21.4718C4.97157 21.5432 4.07844 21.4876 3.20902 21.7574C2.86915 21.8605 2.56881 22.0112 2.26847 22.1779C1.59664 22.5666 0.60076 22.3762 0.134435 21.7494C-0.0552571 21.4956 -0.0552576 21.2655 0.205568 21.0195C0.584952 20.6625 1.02757 20.4007 1.47808 20.1548C2.30008 19.7025 2.89287 19.0123 3.50146 18.33C4.07054 17.6953 4.75817 17.1876 5.51693 16.8068C6.6867 16.2117 7.84856 15.577 9.09736 15.1724C10.5121 14.7202 11.9506 14.2918 13.4603 14.268C14.3929 14.2521 15.3177 14.1966 16.2503 14.1728C16.8194 14.1569 17.3885 14.2363 17.9417 14.3315C18.9534 14.506 19.973 14.6091 21.0005 14.5933C22.2572 14.5774 23.4665 14.8471 24.6758 15.1407C26.0906 15.4818 27.3947 16.061 28.7304 16.5926C30.3981 17.251 32.0896 17.854 33.7652 18.4808C34.7927 18.8616 35.6621 19.5121 36.5394 20.1468C37.314 20.7022 38.0569 21.3131 38.8236 21.8843C39.037 22.043 39.1951 22.2889 39.5192 22.3841C39.2662 21.8208 38.8236 21.448 38.5154 20.9799C37.6459 19.6867 36.3734 18.8695 35.1246 18.0365C34.3817 17.5367 33.8205 16.8544 33.204 16.2276C32.7219 15.7436 32.2476 15.2676 31.6628 14.9027C31.1411 14.5774 30.5562 14.4425 29.9792 14.3711C29.339 14.2918 29.0071 13.8792 28.6988 13.4111C28.5724 13.2128 28.7146 13.0145 28.8569 12.8479C29.2126 12.4512 29.6789 12.237 30.1689 12.0862C30.8487 11.872 31.5521 11.7133 32.2476 11.5229C32.3741 11.4912 32.5796 11.4912 32.5875 11.3405C32.6033 11.1342 32.3741 11.158 32.2397 11.1263C31.3071 10.9041 30.3744 10.7137 29.4102 10.7454C29.1177 10.7534 28.8332 10.793 28.5487 10.8406C27.9875 10.9358 27.4737 10.801 26.9758 10.5788C26.8019 10.4995 26.6675 10.3567 26.6043 10.2059C26.2803 9.42845 25.7428 8.79375 25.2449 8.12733C24.8576 7.6037 24.5019 7.05628 24.1857 6.48506C23.7194 5.65202 23.0792 5.00146 22.1703 4.62858C20.9768 4.14462 19.9651 3.35919 18.8586 2.71656C18.1868 2.32781 17.4912 2.0898 16.685 2.24848C16.3926 2.30401 16.0606 2.16121 15.8472 1.88353C15.7287 1.72486 15.6496 1.55031 15.5943 1.35991C15.3256 0.50307 15.6022 0.209525 16.4874 0.320596C17.3252 0.423734 18.163 0.384065 19.0087 0.217458C20.2101 -0.020552 21.4431 -0.0364191 22.6603 0.0429176C23.4981 0.0984532 24.3438 0.185723 25.1816 0.249193C26.4779 0.352331 27.7504 0.582407 29.0387 0.788683C30.9119 1.08223 32.5006 2.07394 34.2078 2.78003C36.4604 3.70827 38.0411 5.47748 39.6772 7.16735C40.2621 7.77031 40.8628 8.36534 41.2817 9.11903C41.6137 9.71406 41.8903 10.3408 42.1432 10.9676C42.5463 11.9672 43.0522 12.9272 43.3683 13.9665C43.7635 15.2835 44.2931 16.5529 44.6724 17.8699C44.9807 18.933 45.1941 20.0278 45.1467 21.1544C45.1388 21.2575 45.0913 21.4083 45.2257 21.4559C45.3443 21.4956 45.4075 21.3607 45.4707 21.2655C46.4192 19.9009 47.5969 18.7981 48.9879 17.8857C50.9955 16.5767 53.1849 15.7119 55.4216 14.9265C55.9038 14.7599 56.4254 14.7202 56.9313 14.6964C57.7928 14.6567 58.6464 14.6964 59.5079 14.6409C60.3457 14.5853 61.1993 14.6885 62.0371 14.7599C62.8433 14.8313 63.6495 14.8313 64.4557 14.744C65.3963 14.6329 66.3052 14.744 67.2141 14.9582C68.6842 15.2994 70.1781 15.4898 71.664 15.7119C72.5334 15.8468 73.3159 16.2593 74.1142 16.6164C75.197 17.1003 76.2798 17.6001 77.3468 18.1158C78.5245 18.687 79.6152 19.3931 80.5321 20.3452C81.931 21.797 83.0929 23.4076 83.8912 25.272C83.9149 25.3355 83.9702 25.3831 84.0097 25.4307C83.9307 25.5021 83.9307 25.5893 83.9307 25.6687ZM55.9907 73.8736C55.9512 74.905 56.1725 75.7539 56.5519 76.579C56.6704 76.8408 56.7732 76.9281 57.034 76.706C57.3344 76.4521 57.6505 76.222 57.9904 76.0316C58.5357 75.7301 59.1364 75.5 59.7371 75.7777C60.2667 76.0237 60.6698 76.4679 60.7251 77.0947C60.7804 77.7215 60.3773 78.0944 59.8873 78.3879C59.8241 78.4196 59.7687 78.4672 59.7055 78.499C59.4842 78.618 59.168 78.7687 59.1759 78.9829C59.1918 79.1892 59.5316 79.3003 59.7608 79.3717C61.8395 80.054 63.7523 79.7049 65.3646 78.2292C67.0403 76.698 67.5461 74.7543 67.0402 72.5329C67.0086 72.39 66.977 72.2869 66.7794 72.2869C65.4674 72.3186 64.7402 71.3983 64.1 70.478C63.7918 70.0337 63.6732 69.4387 63.4203 68.923C63.3017 68.685 63.199 68.5739 62.9777 68.5343C62.1478 68.3994 61.3021 68.3439 60.488 68.5025C58.0694 68.9786 55.967 71.0334 55.9907 73.8736ZM61.2547 80.3634C60.6144 80.2682 59.9979 80.1571 59.3973 79.935C59.2392 79.8794 59.0179 79.6732 58.923 79.8001C58.7887 79.9826 58.8835 80.2523 58.9942 80.4665C59.1759 80.7997 59.4921 80.9663 59.8241 80.9029C60.3299 80.8156 60.8279 80.6887 61.2547 80.3634Z" fill="white"></path>
<path d="M35.9626 54.1347C36.2235 53.1827 36.3815 52.2465 36.6107 51.3262C36.7609 50.7391 36.9506 50.1758 37.2193 49.6363C37.4881 49.1048 37.8121 48.6526 38.5235 48.7319C39.1558 48.8033 39.7802 49.2873 39.962 49.9061C40.1675 50.5884 40.0963 51.2627 39.8908 51.9292C39.4166 53.4445 38.9187 54.9598 38.4365 56.4752C38.3338 56.8084 38.1125 57.1654 38.1678 57.4669C38.2231 57.7604 38.6578 57.8715 38.9108 58.0857C39.4561 58.5538 39.9224 59.0853 40.1991 59.7597C40.6733 60.9101 40.3967 61.9494 39.7486 62.9332C39.298 63.6075 38.8238 64.2581 38.3812 64.9404C37.8991 65.6862 37.5276 66.4795 37.3932 67.3681C37.3221 67.8441 37.3063 68.3201 37.4644 68.7803C38.0097 70.4146 38.6499 72.0093 39.7249 73.3818C40.4757 74.3418 41.3767 75.0796 42.6493 75.2145C43.0049 75.2542 43.3448 75.2224 43.6847 75.1431C43.9771 75.0717 44.1984 75.1193 44.2774 75.4208C44.3644 75.7619 44.1352 75.9047 43.8506 75.9682C42.42 76.2617 41.1792 75.8492 40.0963 74.913C38.7764 73.7706 37.9465 72.2949 37.2905 70.7002C37.1877 70.4384 37.1008 70.1766 36.9822 69.9227C36.1918 68.2011 36.5396 66.5747 37.3774 64.9801C37.7489 64.274 38.2468 63.6472 38.7053 62.9966C39.053 62.5048 39.3771 62.0049 39.551 61.4178C39.7486 60.7276 39.6616 60.1009 39.2269 59.5138C38.5788 58.6411 37.654 58.1492 36.6977 57.7287C36.4052 57.6017 36.0575 57.5065 35.7967 57.7922C35.52 58.1016 35.4647 58.4903 35.5832 58.8949C35.7492 59.4582 36.1444 59.847 36.6107 60.1802C36.8953 60.3785 37.1956 60.5531 37.4881 60.7514C37.7015 60.8942 37.7805 61.0926 37.6224 61.3226C37.4723 61.5448 37.2668 61.5845 37.0376 61.4496C36.7214 61.2671 36.4527 60.9736 36.018 61.1798C35.5437 61.394 35.2355 61.7511 35.0379 62.2191C34.7138 63.0125 34.6664 63.8455 34.7138 64.6945C34.7296 64.9642 34.6901 65.1863 34.374 65.2022C34.0736 65.2101 33.9076 65.0197 33.8918 64.7341C33.8365 63.6631 33.9393 62.6079 34.4293 61.6321C34.6427 61.1957 34.9351 60.8228 35.3619 60.5848C35.6228 60.442 35.5912 60.3627 35.4094 60.1723C34.9509 59.6804 34.6427 59.1171 34.7059 58.403C34.8087 57.1257 35.6939 56.5069 36.8795 56.9433C37.3142 57.1019 37.4248 56.9988 37.5513 56.6021C38.1046 54.8884 38.7527 53.2065 39.1795 51.4532C39.3059 50.9216 39.3771 50.4059 39.0135 49.9299C38.6262 49.4221 38.2626 49.4459 37.9702 50.0092C37.4644 50.9771 37.2905 52.0402 37.1166 53.1034C36.9743 53.9999 36.8795 54.9043 36.4606 55.7294C36.342 55.9674 36.2393 56.2372 35.8994 56.1896C35.5832 56.1499 35.5437 55.8722 35.4884 55.6263C35.0458 53.865 34.6111 52.1037 34.1764 50.3424C34.1052 50.041 34.0262 49.7474 33.8444 49.4935C33.5283 49.0572 33.22 49.0651 32.9434 49.5253C32.5719 50.152 32.564 50.8185 32.7063 51.5087C32.9908 52.8892 33.4255 54.2379 33.5678 55.6501C33.5757 55.7532 33.6389 55.8246 33.7021 55.9039C34.6743 57.2051 34.8166 58.6807 34.4767 60.204C34.2633 61.1481 33.5678 61.513 32.6351 61.2988C32.4217 61.2512 32.3822 61.283 32.3664 61.4892C32.2636 62.5365 31.5444 63.1315 30.4932 63.0601C30.3509 63.0522 30.1849 62.9649 30.2245 63.2505C30.4221 64.6945 30.9753 65.9559 32.0423 66.9714C32.3585 67.2729 32.7458 67.4792 33.1331 67.6616C33.6942 67.9314 33.9709 68.3598 34.1448 68.9548C34.785 71.1525 35.7097 73.2311 37.1324 75.04C38.6578 76.9758 40.5706 78.1976 43.1235 78.1738C43.3764 78.1738 43.5819 78.2452 43.574 78.5387C43.574 78.8719 43.3606 78.9989 43.0524 79.0068C41.7561 79.0227 40.5389 78.737 39.4087 78.1024C37.4406 76.9996 36.1128 75.3018 35.0458 73.366C34.2633 71.9379 33.6942 70.4226 33.2358 68.8676C33.1963 68.7406 33.1647 68.6534 33.0303 68.5899C31.3231 67.8124 30.3193 66.424 29.7107 64.6945C29.4973 64.0836 29.3788 63.4568 29.3709 62.8062C29.3709 62.6396 29.3076 62.5286 29.197 62.4016C28.2169 61.283 28.1695 59.4741 29.0942 58.2999C29.4183 57.8953 29.8293 57.6494 30.3509 57.6732C30.588 57.689 30.6197 57.578 30.6513 57.3955C30.8489 56.3482 31.3863 55.6183 32.5087 55.4835C32.8327 55.4438 32.7063 55.2296 32.6825 55.0788C32.5245 54.0713 32.2241 53.0954 32.0107 52.0958C31.8606 51.4056 31.6472 50.7153 31.7815 49.9854C31.8922 49.3666 32.232 48.9064 32.7616 48.597C33.4176 48.2083 34.1289 48.3749 34.5479 49.0175C34.9826 49.6839 35.1169 50.4694 35.2987 51.2231C35.5121 52.2069 35.7334 53.1748 35.9626 54.1347ZM33.8286 59.1885C33.7733 58.5221 33.7179 57.8318 33.5124 57.1654C33.3465 56.6259 33.0303 56.3403 32.643 56.3244C32.1767 56.3165 31.6867 56.6735 31.5049 57.1654C31.1887 58.0302 31.7341 59.8232 32.485 60.3627C32.9829 60.7197 33.5045 60.5451 33.718 59.966C33.8049 59.72 33.797 59.4662 33.8286 59.1885ZM31.5207 61.3147C31.5128 61.2671 31.497 61.2116 31.497 61.156C31.4416 60.2675 30.8726 59.5534 30.6513 58.7125C30.588 58.4586 30.2877 58.4824 30.0743 58.5776C29.8214 58.6887 29.6317 58.8791 29.5131 59.125C29.197 59.7676 29.1733 60.442 29.3629 61.1243C29.4657 61.4972 29.6712 61.8145 29.9953 62.0287C30.3272 62.2509 30.6908 62.2985 31.0623 62.116C31.3942 61.9573 31.4891 61.6638 31.5207 61.3147Z" fill="white"></path>
<path d="M63.7127 73.7546C63.7602 75.3016 62.5746 76.1505 61.6024 76.1188C60.4327 76.0871 59.4921 75.1271 59.5237 73.9926C59.5553 72.866 60.5591 71.8743 61.6736 71.906C62.8354 71.9298 63.8471 72.7549 63.7127 73.7546ZM60.1718 74.0164C60.1718 75.0081 60.8278 75.4444 61.6419 75.492C62.3296 75.5317 63.0725 74.6987 63.0567 74.0005C63.033 73.2071 62.3849 72.5645 61.6103 72.5724C60.8516 72.5804 60.1639 73.2706 60.1718 74.0164Z" fill="white"></path>
<path d="M57.8086 72.6281C57.8086 72.4298 57.856 72.2553 58.0062 72.1283C58.1564 72.0014 58.3144 71.8506 58.512 72.0331C58.6859 72.1918 58.5595 72.3267 58.433 72.4457C58.3619 72.5091 58.3461 72.5805 58.3461 72.6678C58.3461 72.8661 58.3382 73.0962 58.0694 73.0724C57.8165 73.0486 57.8402 72.7947 57.8086 72.6281Z" fill="white"></path>
<path d="M60.4324 70.4148C60.4087 70.4624 60.385 70.5497 60.3376 70.5735C60.1321 70.6925 59.9582 70.8511 59.7764 71.0019C59.6658 71.0891 59.5472 71.0891 59.4366 70.986C59.3259 70.8749 59.3417 70.7559 59.4366 70.6449C59.6025 70.4624 59.7369 70.2244 59.9977 70.1688C60.1953 70.1292 60.3613 70.1688 60.4324 70.4148Z" fill="white"></path>
<path d="M61.7366 76.7617C62.0765 76.7538 62.3848 77.1187 62.3373 77.4599C62.3215 77.5789 62.2583 77.6661 62.1318 77.6979C62.0212 77.7217 61.9501 77.6661 61.8868 77.5868C61.7999 77.4757 61.7999 77.2932 61.6023 77.2694C61.4521 77.2536 61.3494 77.1425 61.3889 76.9759C61.4205 76.7934 61.5707 76.7538 61.7366 76.7617Z" fill="white"></path>
<path d="M63.7758 77.0788C63.7679 77.2771 63.1435 77.8008 62.9696 77.7532C62.7879 77.7056 62.693 77.5628 62.8037 77.4041C62.9617 77.174 63.1593 76.9677 63.4202 76.8646C63.6178 76.7932 63.7442 76.8963 63.7758 77.0788Z" fill="white"></path>
<path d="M58.3063 70.8113C58.2668 70.8827 58.2984 70.9382 58.3537 70.9937C58.4644 71.0889 58.5513 71.1921 58.4407 71.3507C58.3695 71.446 58.2668 71.4936 58.1561 71.4698C57.9823 71.4301 57.8479 71.319 57.8084 71.1524C57.7609 70.9461 57.8716 70.7557 57.9348 70.5653C57.9664 70.4701 58.085 70.4384 58.1799 70.486C58.3379 70.5415 58.3774 70.6605 58.3063 70.8113Z" fill="white"></path>
<path d="M66.2181 75.5159C66.2023 75.6429 66.0837 75.8015 65.9652 75.7301C65.7359 75.5873 65.4356 75.4604 65.3566 75.1748C65.3091 75.0082 65.483 74.9209 65.6569 74.9209C65.9177 74.9209 66.226 75.2383 66.2181 75.5159Z" fill="white"></path>
<path d="M61.1598 77.785C61.3416 77.8008 61.642 77.7373 61.6183 78.0706C61.6024 78.3562 61.3179 78.3006 61.1203 78.3006C60.9148 78.3006 60.6461 78.3006 60.654 78.023C60.654 77.7135 60.9227 77.785 61.1598 77.785Z" fill="white"></path>
<path d="M59.1999 75.0795C59.1129 75.4127 58.8205 75.3254 58.615 75.381C58.4727 75.4206 58.3305 75.3016 58.3542 75.135C58.4016 74.8653 58.6308 74.8018 58.86 74.7939C59.0418 74.7859 59.1683 74.8891 59.1999 75.0795Z" fill="white"></path>
<path d="M57.7139 74.7464C57.4768 74.6512 57.3819 74.437 57.3661 74.199C57.3582 74.0482 57.4689 73.9134 57.619 73.9451C57.8957 74.0006 57.9352 74.2704 57.9747 74.4925C58.0142 74.6353 57.8878 74.7305 57.7139 74.7464Z" fill="white"></path>
<path d="M64.5424 77.309C64.5266 77.4994 64.4397 77.6025 64.2974 77.5866C64.0366 77.5628 63.9101 77.3724 63.8706 77.1424C63.8469 76.9837 63.9496 76.8488 64.1077 76.8726C64.3685 76.9123 64.4397 77.1503 64.5424 77.309Z" fill="white"></path>
<path d="M64.8982 75.7224C64.8429 75.9049 64.8508 76.1667 64.5583 76.1429C64.3765 76.127 64.3291 75.9604 64.3528 75.8017C64.3844 75.5955 64.4161 75.3574 64.6927 75.3733C64.8666 75.3812 64.914 75.5479 64.8982 75.7224Z" fill="white"></path>
<path d="M61.5311 70.9302C61.5153 71.1762 61.4837 71.3824 61.2466 71.3824C61.0332 71.3824 60.9936 71.2 61.0095 71.0175C61.0253 70.8271 61.0648 70.6367 61.3019 70.6525C61.4916 70.6605 61.539 70.8191 61.5311 70.9302Z" fill="white"></path>
<path d="M62.8671 70.2163C62.8197 70.3909 62.7091 70.4782 62.5352 70.4464C62.3613 70.4147 62.1637 70.3592 62.1716 70.1291C62.1795 69.9545 62.3139 69.8673 62.4878 69.899C62.6617 69.9307 62.8355 69.9863 62.8671 70.2163Z" fill="white"></path>
<path d="M64.2264 74.6116C64.0762 74.6037 63.8944 74.572 63.8865 74.3577C63.8786 74.1673 64.0288 74.0959 64.2027 74.0959C64.4003 74.088 64.59 74.1435 64.59 74.3736C64.59 74.5561 64.424 74.6116 64.2264 74.6116Z" fill="white"></path>
<path d="M64.076 72.0491C64.0523 72.2157 63.9575 72.3109 63.7994 72.3029C63.6334 72.295 63.4516 72.2553 63.4437 72.0411C63.4358 71.8666 63.5623 71.7555 63.7361 71.7555C63.9179 71.7476 64.0365 71.8587 64.076 72.0491Z" fill="white"></path>
<path d="M65.254 74.1672C65.088 74.1434 65.001 74.0402 65.001 73.8895C64.9931 73.7229 65.0722 73.5801 65.254 73.5721C65.4199 73.5642 65.499 73.6911 65.5069 73.8419C65.5069 74.0164 65.4357 74.1354 65.254 74.1672Z" fill="white"></path>
</svg>