<svg xmlns="http://www.w3.org/2000/svg" width="150" height="152" viewBox="0 0 150 152" fill="none">
            <path d="M5.81246 86.23L5.8113 86.2291C2.47213 83.7604 0.560751 79.9365 0.500007 75.7398C0.501197 71.5488 2.41038 67.7273 5.7496 65.2583L5.75248 65.2561C10.5207 61.6772 12.2305 55.361 9.8459 49.86C8.20405 46.0304 8.44299 41.7528 10.5028 38.135C12.5618 34.5186 16.1086 32.1711 20.2255 31.689C26.1287 31.0046 30.7066 26.3769 31.383 20.4238C31.8611 16.2609 34.1881 12.6786 37.7667 10.6005C41.3465 8.52172 45.5777 8.28104 49.3661 9.93792L49.3666 9.93812C54.8164 12.3155 61.1084 10.6211 64.6234 5.80096L64.6243 5.79981C67.0703 2.42545 70.8543 0.499978 75 0.499978C79.1458 0.499979 82.9295 2.42545 85.3757 5.79983L85.3779 5.80271C88.9212 10.6175 95.1805 12.349 100.635 9.93751C104.423 8.28106 108.654 8.52183 112.233 10.6005C115.812 12.6786 118.139 16.2609 118.617 20.4238C119.294 26.377 123.871 31.0048 129.775 31.6891C133.892 32.1712 137.438 34.5187 139.497 38.135C141.557 41.7531 141.796 46.0311 140.154 49.8609L140.154 49.8614C137.803 55.3579 139.476 61.7071 144.249 65.2575L144.25 65.2583C147.591 67.7279 149.5 71.5512 149.5 75.7437C149.5 79.9367 147.59 83.7605 144.28 86.2304L144.278 86.2313C139.51 89.8103 137.8 96.1264 140.185 101.627C141.827 105.457 141.588 109.735 139.528 113.352C137.469 116.969 133.923 119.316 129.806 119.798C123.903 120.483 119.324 125.11 118.648 131.064C118.17 135.225 115.844 138.777 112.264 140.856C108.684 142.935 104.453 143.175 100.665 141.518L100.664 141.518C95.2145 139.141 88.9225 140.835 85.4074 145.655L85.4066 145.656C82.9606 149.031 79.1766 150.956 75.0309 150.956C70.8842 150.956 67.1011 149.03 64.6865 145.688L64.6839 145.685C61.1406 140.87 54.8812 139.138 49.4269 141.55C45.6388 143.206 41.4079 142.966 37.8284 140.887C34.2498 138.809 31.9228 135.227 31.4447 131.064C30.7683 125.111 26.1904 120.483 20.2873 119.798C16.1703 119.316 12.6235 116.969 10.5645 113.352C8.5046 109.734 8.2658 105.456 9.90804 101.627L9.90822 101.626C12.2591 96.1295 10.5859 89.7803 5.81246 86.23Z" fill="#FFEFBC" stroke="#EABA21"></path>
          </svg>