<svg xmlns="http://www.w3.org/2000/svg" version="1.1" id="Layer_1" x="0px" y="0px" viewBox="0 0 513.27 431.54" style="enable-background:new 0 0 513.27 431.54;" xmlns:xlink="http://www.w3.org/1999/xlink" xml:space="preserve">
<style type="text/css">
	.st0{fill:none;stroke:#FFFFFF;stroke-width:11.3386;stroke-linecap:round;stroke-miterlimit:10;}
	.st1{fill:#FFFFFF;}
</style>
<path class="st0" d="M387.95,265.7c-5.14,2.62-14.31,6.42-26.15,6.54c-7.31,0.07-12.61,0.12-16.89-3.27  c-7.68-6.08-3.21-16.21-7.63-33.24c-0.9-3.45-5.19-18.85-17.98-31.6c-3.97-3.96-17.91-17.85-35.96-16.35  c-2.68,0.22-14.49,1.21-17.98,8.72c-4.01,8.64,5.47,20.57,8.17,23.97c8.82,11.1,15.66,9.79,19.62,18.53  c3.6,7.95,2.56,19.25-3.81,26.15c-10.73,11.62-31.02,4.76-32.15,4.36c-12.7-4.49-10.7-11.94-26.15-18.53  c-8.51-3.63-10.01-1.75-24.52-7.08c-10.77-3.96-13.77-6.4-15.8-4.9c-4.69,3.45,1.75,23.38,10.9,36.51  c17.92,25.73,50.85,31.99,67.56,33.78"></path>
<path class="st0" d="M213.84,288.66c-13.6-2.74-38.41-5.14-46.57-6.61c-18.63-3.36-23.14-2.35-26.7,0  c-6.98,4.61-11.15,14.95-8.17,22.34c4.9,12.19,31.66,19.7,41.41,22.34c16.83,4.56,48.81,8.16,89.9,7.08"></path>
<path class="st0" d="M167.53,324.95c-13.33,2.89-8.34,15.76-3.52,20.85c8.33,8.79,19.43,10.51,26.15,11.44  c36.72,5.08,74.9,5.31,111.92-0.09c37.71-5.5,71.89-18.4,107.12-32.06"></path>
<path class="st0" d="M319.3,204.13c9.26-8.52,19.62-23.43,21.51-49.64c0.68-9.49,0.3-35.01-13.3-56.61  c-14.97-23.77-44.2-33.5-62.69-38.14c-23.79-5.98-51.84-10.8-55.58-1.98c-1.07,2.52,1.84,11.01-1.09,15.6  c-3.13,4.92-5.98,4.36-8.17,8.72c-2.73,5.42,0.65,8.3-2.18,12.53c-2.85,4.27-7.17,2.65-9.81,7.08c-2.4,4.04,0.15,7.11-2.18,9.26  c-3.1,2.87-8.51-1.79-13.08,1.09c-3.82,2.41-2.31,7.11-5.45,8.72c-5.01,2.56-11.82-4.98-16.89-6.54  c-7.58-2.32-13.14,23.9-8.17,54.19c4.9,29.92,19.04,47.68,43.05,62.46c28.59,17.6,55.4,25.81,103.25,2.11"></path>
<path class="st0" d="M243.01,126.76c-3.6-0.41-14.72-1.68-22.34,5.45c-9.07,8.48-8.38,24.36-2.18,34.87  c5.32,9.02,16.41,16.96,29.42,15.26c11.91-1.56,23-10.89,24.52-22.88c1.56-12.26-7.64-21.29-9.81-23.43  C255.04,128.56,246.06,127.11,243.01,126.76z"></path>
<g>
	<path class="st1" d="M248.46,97.88c7.15,3.08,6.65,7.09-1.09,8.17C240.18,102.97,240.75,98.98,248.46,97.88L248.46,97.88z"></path>
</g>
<g>
	<path class="st1" d="M266.44,92.98c6.75-6.81,17.6,1.88,14.58,10.32c-0.93,2.55-2.93,4.52-5.87,4.94   c-1.24-2.66-2.21-4.15-3.06-5.13c-1.86-1.85-1.95-2.14-2.9-4.69C268.68,97.1,267.94,95.5,266.44,92.98L266.44,92.98z"></path>
</g>
<g>
	<path class="st1" d="M300.23,97.33c8.63,3.05,6.45,14.56-2.72,14.17C292.78,104.44,293.28,102.16,300.23,97.33L300.23,97.33z"></path>
</g>
<g>
	<path class="st1" d="M293.69,122.94c9.88-3.02,16.26,10.68,7.63,16.35C293.68,134.36,292.69,131.91,293.69,122.94L293.69,122.94z"></path>
</g>
<g>
	<path class="st1" d="M311.12,152.37c4.61,2.48,4.95,8.11,2.16,11.83c-2.8,3.75-8.28,4.98-11.96,1.24c1.5-3.67,1.49-5.66,2.9-8.05   C306.24,155.32,307.98,154.89,311.12,152.37L311.12,152.37z"></path>
</g>
<g>
	<path class="st1" d="M283.34,168.71c1.16-6.98,10.75-6.4,12.14-0.21c0.37,1.77,0.07,3.81-1.79,5.66c-2.58-0.18-3.99-0.02-5,0.12   c-1,0.16-1.43,0.29-1.74,0.13c-0.31-0.18-0.45-0.61-0.88-1.52C285.61,171.97,284.95,170.72,283.34,168.71L283.34,168.71z"></path>
</g>
<g>
	<path class="st1" d="M201.6,122.94c1.53-2.11,2.19-3.41,2.63-4.38c0.42-0.97,0.55-1.42,0.86-1.65c0.32-0.23,0.8-0.17,1.83-0.19   c1.05-0.05,2.5-0.16,5.03-0.86c3.88,2.93,3.04,8.03-0.48,10.42C207.94,128.66,203,127.57,201.6,122.94L201.6,122.94z"></path>
</g>
<g>
	<path class="st1" d="M185.26,147.46c0.78,2.43,1.45,3.64,1.96,4.49c0.53,0.83,0.8,1.16,0.77,1.46c-0.04,0.29-0.41,0.53-1.14,1.2   c-0.73,0.69-1.73,1.67-3.23,3.74c-2.56,0.36-4.31-0.55-5.47-1.81C174.09,151.91,179.17,144.37,185.26,147.46L185.26,147.46z"></path>
</g>
<g>
	<path class="st1" d="M180.35,169.26c-3.09,9.78-0.73,6.89-9.81,11.44c-4.19-2.68-4.26-7.81-1.4-11.14   C172.06,166.26,177.01,165.62,180.35,169.26L180.35,169.26z"></path>
</g>
<g>
	<path class="st1" d="M192.89,177.43c9.05-1.65,11.27,10.35,2.18,11.99C188.21,184.21,188.37,184.7,192.89,177.43L192.89,177.43z"></path>
</g>
<g>
	<path class="st1" d="M194.52,160.54c-3.47-6.41,4.92-11.72,9.74-7.35c1.35,1.27,2.26,3.16,1.7,5.72c-2.26,1.25-3.33,2.19-4.05,2.88   c-0.7,0.7-0.91,1.08-1.22,1.11c-0.31,0.04-0.61-0.26-1.49-0.74C198.32,161.7,197.03,161.1,194.52,160.54L194.52,160.54z"></path>
</g>
<g>
	<path class="st1" d="M196.7,206.85c1.54-6.51,8.93-9.33,14.92-7.72c5.99,1.61,10.65,6.65,10.15,13.17   C211.73,211.51,206.43,209.13,196.7,206.85L196.7,206.85z"></path>
</g>
<g>
	<path class="st1" d="M233.75,209.58c-4.42-3.09-3.27-9.17,0.72-11.83c3.94-2.76,10-1.61,11.27,3.65c-2.03,1.83-3,3.07-3.65,4.01   c-0.63,0.94-0.81,1.44-1.23,1.7c-0.41,0.29-0.95,0.28-2.05,0.52C237.68,207.89,236.18,208.35,233.75,209.58L233.75,209.58z"></path>
</g>
<g>
	<path class="st1" d="M223.46,92.98c1.49-7.83,6.49-8.64,10.29-1.61C232.28,99.23,227.27,99.97,223.46,92.98L223.46,92.98z"></path>
</g>
<g>
	<path class="st1" d="M257.36,219.12c1.47,1.84-0.66,4.94-2.03,6.11c-4.44,3.77-10.05,1.61-12.1-3.98c3.08-4.7,7.34-7.62,11.62-3.43   C255.55,218.37,256.36,219.29,257.36,219.12L257.36,219.12z"></path>
</g>
</svg>