<svg xmlns="http://www.w3.org/2000/svg" width="25" height="48" viewBox="0 0 25 48" fill="none">
<path d="M23.2753 12.8289H10.113L9.42884 9.35939L15.4657 8.17201C15.7508 8.11625 15.9746 7.89564 16.0353 7.61153C16.0955 7.32789 15.9809 7.03554 15.743 6.86874L7.54604 1.13066C7.38434 1.01769 7.18281 0.975997 6.98954 1.01333C6.79627 1.05163 6.62583 1.16703 6.51899 1.33284L1.11473 9.74534C0.957883 9.98971 0.962247 10.3034 1.12541 10.5434C1.26236 10.7436 1.48816 10.86 1.72464 10.86C1.77126 10.86 1.81787 10.8556 1.86497 10.8464L8.00579 9.63867L8.63464 12.8284H4.09237C3.69223 12.8284 3.36737 13.1528 3.36737 13.5523L3.36689 26.4372C3.36689 31.8723 7.60758 36.3257 12.957 36.7005V45.5518H6.88992V47H20.0808V45.5518H14.4085V36.7C19.7583 36.3257 24 31.872 24 26.4367V13.5531C24 13.1535 23.6751 12.8292 23.2745 12.8292L23.2753 12.8289ZM3.25469 9.09762L7.33328 2.74912L13.5179 7.0793L3.25469 9.09762ZM4.8183 14.2772H8.92063L10.2259 20.8953C8.8852 20.8768 8.19129 20.6693 7.4658 20.4477C6.76654 20.2344 6.04154 20.0162 4.81731 19.9537L4.81779 14.2772H4.8183ZM22.5503 26.4371C22.5503 31.3175 18.5733 35.2884 13.6843 35.2884C8.79632 35.2884 4.8193 31.3175 4.8193 26.4371V21.4044C5.82108 21.4635 6.42132 21.6429 7.04388 21.833C7.87183 22.0856 8.72795 22.3469 10.4169 22.3469C12.1063 22.3469 12.9628 22.0851 13.7917 21.833C14.5517 21.6012 15.2694 21.3816 16.7427 21.3816C18.2155 21.3816 18.9342 21.6008 19.6941 21.833C20.4322 22.0584 21.197 22.2892 22.5513 22.3368L22.5508 26.4371L22.5503 26.4371ZM22.5503 20.889C21.415 20.8435 20.7817 20.651 20.117 20.4478C19.2881 20.1952 18.4315 19.9339 16.7417 19.9339C15.0519 19.9339 14.1947 20.1957 13.3672 20.4478C12.868 20.6001 12.3814 20.7455 11.6923 20.8284L10.4001 14.2768H22.5502L22.5507 20.889L22.5503 20.889Z" fill="#AE1D74" stroke="#AE1D74" stroke-width="0.5"></path>
</svg>