<svg xmlns="http://www.w3.org/2000/svg" width="257" height="153" viewBox="0 0 257 153" fill="none">
<g clip-path="url(#clip0_46_2)">
<path d="M51.9107 12.3902C50.3307 12.6802 48.7607 12.9802 47.1807 13.2902C32.7507 16.1402 7.59072 22.8102 5.54072 40.7402C4.35072 51.1902 13.6507 60.6702 23.1107 63.5002C27.5807 64.8402 32.3407 64.9102 36.9107 65.8802C47.7107 68.1702 51.4807 77.8002 57.0707 86.1702C62.2507 93.9202 67.2007 103.46 74.3307 109.63C80.7907 115.22 90.4607 112.65 96.0807 106.81C103.161 99.4502 101.931 89.1902 107.421 81.1802C109.921 77.5402 114.041 75.0602 118.431 74.5602C126.201 73.6802 132.411 79.3002 137.551 84.3602C141.251 88.0002 145.011 91.7102 149.671 93.9902C155.851 97.0202 162.701 96.5302 167.951 91.9802C177.421 83.7602 185.101 65.9402 199.051 65.4602C210.321 65.0702 221.131 69.4002 232.361 69.5602C244.241 69.7302 252.431 63.3402 251.261 50.9802C249.111 28.0502 227.311 18.7502 207.241 14.4902C156.321 3.68017 103.171 2.92017 51.9107 12.3902Z" stroke="#B11D75" stroke-width="11.3386" stroke-miterlimit="10"></path>
<path d="M124.962 26.5101C103.862 25.8501 92.2517 28.0101 92.2617 38.9101C92.2717 48.8501 111.502 50.5501 118.592 51.3801C130.252 52.7401 142.202 51.6501 153.392 48.0601C160.202 45.8701 168.222 39.3901 159.702 34.2001C150.742 28.7401 141.792 27.0401 124.962 26.5101Z" stroke="#B11D75" stroke-width="11.3386" stroke-miterlimit="10"></path>
<path d="M7.66087 51.02C6.99087 57.91 6.84087 89.33 15.2509 105.02C24.8509 122.93 40.3309 130.86 49.0309 135.17C54.2309 137.74 63.9209 141.92 89.7209 144.98C113.101 147.75 137.161 148.35 160.571 145.5C193.421 141.49 229.641 133.39 243.731 99.14C250.431 82.87 250.091 62.75 250.431 59.27" stroke="#B11D75" stroke-width="11.3386" stroke-miterlimit="10"></path>
</g>
<defs>
<clipPath id="clip0_46_2">
<rect width="257" height="153" fill="white"></rect>
</clipPath>
</defs>
</svg>