<svg xmlns="http://www.w3.org/2000/svg" width="47" height="51" viewBox="0 0 47 51" fill="none">
<path d="M45.9373 16.5769C41.489 7.10329 34.1968 7.33897 31.1584 7.91813C32.6577 5.41074 36.2801 4.19654 36.3218 4.18329C36.5717 4.10097 36.752 3.88268 36.7832 3.62206C36.8145 3.3619 36.6914 3.1074 36.4676 2.96909C27.933 -2.29607 21.1047 4.50785 19.8301 5.91545C18.6592 5.43937 14.148 3.84884 9.68064 5.41443C9.62432 5.42714 9.57226 5.44501 9.52114 5.47041C7.39142 6.25275 5.28108 7.76187 3.55736 10.4693C3.41632 10.6904 3.41775 10.9731 3.55925 11.1938C3.70171 11.4149 3.96154 11.5339 4.22089 11.4986C4.2649 11.4934 8.0558 11.0159 10.5055 12.6229C7.51531 13.4194 0.850622 16.3686 1.00255 26.8207C1.00681 27.0897 1.17151 27.332 1.42234 27.4346C1.67223 27.5357 1.96046 27.4816 2.15498 27.293C2.20846 27.2412 7.2171 22.4226 12.4241 21.7047C11.6375 23.9068 10.5524 29.1936 14.9419 35.3761C15.0707 35.5582 15.2789 35.6621 15.4961 35.6621C15.551 35.6621 15.6069 35.6556 15.6622 35.6419C15.9334 35.5732 16.136 35.346 16.1696 35.068C16.1786 34.996 16.7986 30.1392 18.9312 26.1339C18.9364 26.1231 18.9435 26.1122 18.9487 26.1009C19.6401 24.8082 20.491 23.6091 21.5295 22.6879C21.5986 26.4665 21.7812 41.4789 20.4783 47.2921C20.3311 47.9512 20.4911 48.6315 20.9166 49.1603C21.3473 49.6937 21.99 50 22.6791 50H28.0076C29.1955 50 30.1828 49.0794 30.2557 47.9047C30.6083 42.1884 30.9363 29.0463 27.1917 22.3358C31.9969 24.6085 35.8546 30.4988 35.9028 30.5728C36.0547 30.8075 36.3363 30.9242 36.6113 30.8687C36.8863 30.8122 37.0978 30.5935 37.1432 30.3183C38.3823 22.851 35.0868 18.5639 33.4139 16.9226C38.4084 15.3146 45.0356 17.4792 45.1057 17.5017C45.3608 17.5883 45.6466 17.5126 45.8269 17.3117C46.0077 17.1094 46.0513 16.821 45.9367 16.5764L45.9373 16.5769ZM28.9036 47.8206C28.8752 48.2858 28.4824 48.6499 28.0101 48.6499H22.6815C22.4061 48.6499 22.1496 48.5281 21.9778 48.315C21.8107 48.108 21.7478 47.8417 21.8055 47.5844C23.3285 40.7828 22.8898 22.5539 22.8699 21.7795C22.8694 21.7635 22.8609 21.7498 22.8595 21.7339C22.9702 21.6718 23.08 21.6078 23.1941 21.5523L23.6522 21.4516C24.1326 21.4535 24.6101 21.5137 25.0838 21.612C29.7688 27.3757 29.1952 43.1007 28.9036 47.8204L28.9036 47.8206ZM41.303 15.257C41.2874 15.2457 41.2793 15.2278 41.2623 15.218C40.8269 14.9385 40.5022 14.493 40.3716 13.9953C40.276 13.6345 39.9049 13.4228 39.5434 13.5131C39.1808 13.6082 38.9641 13.9765 39.0582 14.3364C39.1226 14.5801 39.2225 14.812 39.3394 15.035C36.9237 14.8576 34.1802 15.0195 31.8412 16.085C31.6216 16.1857 31.4716 16.395 31.4484 16.6345C31.4262 16.8739 31.5341 17.1077 31.7314 17.2475C31.7523 17.2625 32.5213 17.8289 33.403 18.9735C33.1366 18.9156 32.8645 18.8771 32.589 18.8676C32.2232 18.8554 31.9009 19.1457 31.8881 19.5182C31.8744 19.8904 32.1678 20.2027 32.5426 20.215C33.3746 20.2441 34.2014 20.6228 34.7713 21.2264C35.6038 22.9901 36.2295 25.3544 36.0117 28.386C35.539 27.7622 34.9128 26.9879 34.1716 26.1678C34.1768 26.1114 34.1867 26.0545 34.1763 25.9957L33.7849 23.7206C33.722 23.3536 33.377 23.1067 33.0021 23.1702C32.633 23.2327 32.3845 23.5809 32.4484 23.9483L32.5426 24.4977C30.1388 22.2303 26.9887 20.1025 23.6218 20.1025C23.5574 20.1029 23.4935 20.1053 23.432 20.118L22.8239 20.2516C22.7737 20.2629 22.725 20.2794 22.6781 20.3015C20.8972 21.1459 19.5076 22.6225 18.4219 24.3185C18.2558 24.0131 18.0793 23.7121 17.8824 23.4256C17.6713 23.1174 17.2482 23.0398 16.9392 23.2482C16.6296 23.4585 16.5497 23.8781 16.7607 24.1858C17.0939 24.6713 17.3769 25.1921 17.6055 25.7368C16.2221 28.4103 15.4763 31.3327 15.1161 33.1471C14.3087 31.7594 13.8027 30.4449 13.4876 29.2227C13.5302 29.1757 13.5676 29.1216 13.596 29.0614C13.9429 28.3411 14.4053 27.69 14.9717 27.127C15.2372 26.8631 15.2372 26.4369 14.9717 26.1734C14.7062 25.9095 14.2774 25.9095 14.0124 26.1734C13.6873 26.4966 13.3929 26.8443 13.1269 27.2136C12.7875 23.7342 13.9987 21.4168 14.081 21.2658C14.1984 21.0546 14.1922 20.7977 14.0668 20.5912C13.9433 20.3894 13.7237 20.2666 13.4866 20.2666H13.4724C11.4974 20.3085 9.54272 20.9337 7.79259 21.7673C7.86784 21.4794 7.92842 21.1882 7.95682 20.8904C7.99279 20.5197 7.71924 20.1904 7.34676 20.1546C6.97951 20.1066 6.64253 20.3898 6.60656 20.761C6.53509 21.4987 6.27054 22.209 5.84127 22.8168C5.83985 22.8187 5.83938 22.822 5.83796 22.8243C4.40817 23.6862 3.20797 24.5993 2.38918 25.2786C2.50987 23.1301 2.96042 21.3838 3.60077 19.9561C3.63058 19.9401 3.66229 19.9307 3.69116 19.9096C4.59749 19.2279 5.59989 18.685 6.67045 18.2955C7.02256 18.168 7.20288 17.7804 7.07462 17.4304C6.94636 17.0804 6.55402 16.9016 6.20427 17.0286C5.83227 17.1641 5.47069 17.3213 5.11384 17.4901C7.88486 14.1087 11.7818 13.7079 12.036 13.6857C12.2906 13.665 12.5112 13.5036 12.6082 13.2694C12.7047 13.0346 12.6602 12.7665 12.4941 12.5741C11.9271 11.9187 11.2381 11.4314 10.5022 11.0696C10.9106 10.8363 11.2954 10.5615 11.6413 10.2421C11.9154 9.98856 11.9319 9.56141 11.6768 9.28902C11.4213 9.0157 10.9915 9.00158 10.718 9.25373C10.1392 9.78768 9.43162 10.1777 8.67014 10.3814C8.65168 10.3861 8.63843 10.3997 8.62045 10.4058C7.5144 10.1433 6.4339 10.0732 5.599 10.0732H5.49393C6.82861 8.38201 8.34636 7.34799 9.87878 6.75052C10.7931 6.84273 11.6796 7.27317 12.5371 7.69799C12.6346 7.74644 12.7378 7.76902 12.8391 7.76902C13.088 7.76902 13.3284 7.63213 13.4472 7.39549C13.6148 7.06242 13.4785 6.65691 13.1434 6.49131C12.902 6.37135 12.6516 6.24716 12.3937 6.12767C13.6318 5.97666 14.8178 6.03923 15.8552 6.19729C15.8751 6.21611 15.8864 6.24057 15.9087 6.25751C16.7024 6.85214 17.3238 7.6491 17.7047 8.56269C17.8131 8.82237 18.0659 8.97809 18.3318 8.97809C18.4189 8.97809 18.5069 8.96209 18.5926 8.92681C18.9386 8.7838 19.1028 8.38911 18.9589 8.04474C18.7677 7.58748 18.5164 7.16268 18.2343 6.75949C18.9807 7.00036 19.4563 7.21817 19.5382 7.25674C19.6726 7.31931 19.8246 7.33719 19.9703 7.30755L20.2879 7.24028C20.4417 7.20735 20.579 7.12361 20.676 7.00177C20.8166 6.82771 22.6329 4.62697 25.535 3.30788C25.4636 3.56192 25.4096 3.82065 25.3893 4.0841C25.3609 4.45574 25.6411 4.7794 26.015 4.80716C26.032 4.80857 26.0495 4.80904 26.0665 4.80904C26.4187 4.80904 26.7159 4.53995 26.7424 4.18524C26.785 3.62543 27.0088 3.08583 27.3681 2.65214C28.3255 2.40375 29.3657 2.27908 30.4722 2.34542C30.3454 2.60792 30.2451 2.88218 30.1925 3.1701C30.1263 3.53704 30.3714 3.88704 30.7406 3.9529C30.7813 3.96043 30.8215 3.96372 30.8613 3.96372C31.1836 3.96372 31.4694 3.73463 31.5281 3.40861C31.5859 3.09153 31.7264 2.79421 31.9304 2.54535C32.7738 2.72271 33.6484 3.01202 34.5509 3.45094C32.858 4.25162 30.0912 5.94845 29.3468 8.7344C29.2815 8.97902 29.3605 9.23871 29.5499 9.40807C29.7387 9.57885 30.0085 9.62636 30.2451 9.53697C30.4709 9.45182 33.7294 8.27521 37.4162 9.65364C36.8369 9.8818 36.3589 10.1589 35.9718 10.4962C35.6902 10.7408 35.6618 11.167 35.9088 11.4479C36.0423 11.6003 36.2311 11.6779 36.419 11.6779C36.5776 11.6779 36.7371 11.6224 36.8663 11.5105C37.2203 11.2014 37.7054 10.9539 38.348 10.754C38.6576 10.658 39.0461 10.5606 39.3197 10.6674C39.3679 10.6863 39.4172 10.6863 39.4664 10.6938C41.0566 11.725 42.6383 13.3273 44.0136 15.7909C43.2961 15.6155 42.3608 15.4155 41.3027 15.257L41.303 15.257Z" fill="#AE1D74" stroke="#AE1D74" stroke-width="0.5"></path>
</svg>